<svg width="18" height="18" viewBox="0 0 18 18" fill="none" xmlns="http://www.w3.org/2000/svg">
<path fill-rule="evenodd" clip-rule="evenodd" d="M8.53413 0C6.2166 0 5.92575 0.0101334 5.01552 0.0515561C4.10707 0.0931565 3.48697 0.23698 2.94439 0.448005C2.38314 0.665962 1.90704 0.957521 1.43273 1.43201C0.958055 1.90633 0.666496 2.38242 0.447827 2.9435C0.236269 3.48626 0.0922676 4.10653 0.0513783 5.01463C0.0106668 5.92486 0 6.21589 0 8.53342C0 10.851 0.0103112 11.1409 0.0515561 12.0511C0.0933343 12.9596 0.237158 13.5797 0.448005 14.1223C0.66614 14.6835 0.957699 15.1596 1.43219 15.6339C1.90633 16.1086 2.38242 16.4009 2.94332 16.6188C3.48626 16.8299 4.10653 16.9737 5.01481 17.0153C5.92504 17.0567 6.21571 17.0668 8.53307 17.0668C10.8508 17.0668 11.1407 17.0567 12.051 17.0153C12.9594 16.9737 13.5802 16.8299 14.1232 16.6188C14.6842 16.4009 15.1596 16.1086 15.6338 15.6339C16.1084 15.1596 16.4 14.6835 16.6187 14.1225C16.8284 13.5797 16.9724 12.9594 17.0151 12.0513C17.056 11.1411 17.0667 10.851 17.0667 8.53342C17.0667 6.21589 17.056 5.92504 17.0151 5.01481C16.9724 4.10635 16.8284 3.48626 16.6187 2.94368C16.4 2.38242 16.1084 1.90633 15.6338 1.43201C15.1591 0.957343 14.6844 0.665785 14.1226 0.448005C13.5786 0.23698 12.9582 0.0931565 12.0497 0.0515561C11.1395 0.0101334 10.8497 0 8.53147 0H8.53413ZM7.76858 1.53777C7.99578 1.53741 8.24929 1.53777 8.5341 1.53777C10.8125 1.53777 11.0826 1.54595 11.9823 1.58684C12.8143 1.62488 13.2659 1.76391 13.5667 1.88071C13.9649 2.03537 14.2488 2.22027 14.5473 2.51894C14.846 2.81761 15.0309 3.10205 15.1859 3.50028C15.3027 3.80073 15.4419 4.25229 15.4798 5.0843C15.5207 5.98386 15.5295 6.25409 15.5295 8.53144C15.5295 10.8088 15.5207 11.079 15.4798 11.9786C15.4417 12.8106 15.3027 13.2622 15.1859 13.5626C15.0312 13.9608 14.846 14.2444 14.5473 14.5429C14.2486 14.8416 13.9651 15.0264 13.5667 15.1811C13.2662 15.2984 12.8143 15.4371 11.9823 15.4752C11.0827 15.5161 10.8125 15.5249 8.5341 15.5249C6.2555 15.5249 5.98545 15.5161 5.08588 15.4752C4.25387 15.4368 3.80231 15.2977 3.50133 15.1809C3.10311 15.0263 2.81866 14.8414 2.51999 14.5427C2.22132 14.244 2.03643 13.9603 1.88141 13.5619C1.7646 13.2614 1.6254 12.8099 1.58754 11.9779C1.54665 11.0783 1.53847 10.8081 1.53847 8.52931C1.53847 6.25053 1.54665 5.98173 1.58754 5.08216C1.62558 4.25015 1.7646 3.79859 1.88141 3.49779C2.03607 3.09956 2.22132 2.81512 2.51999 2.51645C2.81866 2.21778 3.10311 2.03289 3.50133 1.87786C3.80214 1.76053 4.25387 1.62186 5.08588 1.58364C5.87309 1.54808 6.17816 1.53741 7.76858 1.53564V1.53777ZM13.0892 2.95468C12.5238 2.95468 12.0652 3.41282 12.0652 3.97833C12.0652 4.54367 12.5238 5.00234 13.0892 5.00234C13.6545 5.00234 14.1132 4.54367 14.1132 3.97833C14.1132 3.41299 13.6545 2.95468 13.0892 2.95468ZM8.53415 4.15113C6.11403 4.15113 4.15188 6.11328 4.15188 8.5334C4.15188 10.9535 6.11403 12.9148 8.53415 12.9148C10.9543 12.9148 12.9157 10.9535 12.9157 8.5334C12.9157 6.11328 10.9543 4.15113 8.53415 4.15113ZM8.53411 5.68892C10.105 5.68892 11.3786 6.96236 11.3786 8.5334C11.3786 10.1043 10.105 11.3779 8.53411 11.3779C6.96308 11.3779 5.68964 10.1043 5.68964 8.5334C5.68964 6.96236 6.96308 5.68892 8.53411 5.68892Z" fill="#161A34"/>
</svg>
