<svg width="17" height="17" viewBox="0 0 17 17" fill="none" xmlns="http://www.w3.org/2000/svg">
<path d="M4.07918 1.8818C4.05564 0.813602 3.29177 0 2.05135 0C0.81094 0 0 0.813602 0 1.8818C0 2.92787 0.786972 3.7649 2.00429 3.7649H2.02746C3.29177 3.7649 4.07918 2.92787 4.07918 1.8818Z" fill="#161A34"/>
<path d="M3.84037 5.25195H0.214417V16.1464H3.84037V5.25195Z" fill="#161A34"/>
<path d="M12.7421 4.99609C15.1281 4.99609 16.9169 6.55352 16.9169 9.89983L16.9168 16.1464H13.291V10.3178C13.291 8.85384 12.7663 7.85484 11.4537 7.85484C10.4519 7.85484 9.85526 8.52831 9.5932 9.17878C9.49733 9.4119 9.4738 9.73671 9.4738 10.0623V16.1467H5.84741C5.84741 16.1467 5.8952 6.27449 5.84741 5.25221H9.4738V6.79532C9.95505 6.05352 10.817 4.99609 12.7421 4.99609Z" fill="#161A34"/>
</svg>
