<svg width="97" height="30" viewBox="0 0 97 30" fill="none" xmlns="http://www.w3.org/2000/svg">
<path d="M27.7892 21.2615C27.6372 20.8959 27.4946 20.5115 27.3425 20.1834L26.6392 18.6178L26.6107 18.5897C24.5198 14.0897 22.2864 9.51466 19.9199 5.01466L19.8248 4.82716C19.5872 4.38653 19.3496 3.89903 19.1025 3.44903C18.7984 2.91466 18.5038 2.34278 18.0191 1.79903C17.5466 1.23009 16.952 0.771709 16.2781 0.456959C15.6043 0.142209 14.868 -0.0210571 14.1224 -0.0210571C13.3768 -0.0210571 12.6406 0.142209 11.9667 0.456959C11.2928 0.771709 10.6982 1.23009 10.2258 1.79903C9.77907 2.34278 9.44643 2.91466 9.1423 3.44903C8.9047 3.93653 8.6671 4.41466 8.42 4.85528L8.32496 5.04278C5.99647 9.54278 3.725 14.1178 1.63411 18.6178L1.57709 18.674C1.368 19.1615 1.1209 19.6678 0.883296 20.2115C0.731231 20.5397 0.579166 20.8959 0.427102 21.2897C0.0165583 22.3207 -0.114541 23.4395 0.0467238 24.5357C0.207989 25.632 0.656052 26.6679 1.34675 27.5413C2.03746 28.4147 2.94696 29.0955 3.98563 29.5166C5.02429 29.9377 6.15628 30.0846 7.27001 29.9428C8.33776 29.8041 9.36591 29.4533 10.2923 28.9115C11.5278 28.2272 12.7158 27.2334 14.0464 25.799C15.377 27.2334 16.5935 28.2272 17.8005 28.9209C18.9612 29.593 20.2757 29.9639 21.6211 29.999C23.1791 30.0054 24.6869 29.4555 25.8661 28.451C27.0452 27.4464 27.8161 26.0549 28.0363 24.5334C28.2909 23.4401 28.2048 22.2964 27.7892 21.2522V21.2615ZM14.1414 22.8178C12.5067 20.7553 11.4423 18.8615 11.0811 17.2397C10.9315 16.6387 10.8992 16.0151 10.9861 15.4022C11.0526 14.924 11.2332 14.5022 11.4803 14.1459C12.0505 13.3303 13.0485 12.824 14.1414 12.824C14.6605 12.8084 15.1753 12.9201 15.6398 13.1492C16.1043 13.3783 16.5038 13.7175 16.8026 14.1365C17.0497 14.5115 17.2302 14.924 17.2873 15.4022C17.3823 15.9459 17.3443 16.574 17.1922 17.2397C16.8311 18.8334 15.7666 20.7459 14.1414 22.8178ZM26.2496 24.2053C26.1416 24.9777 25.8303 25.7088 25.3467 26.3256C24.8631 26.9424 24.2241 27.4235 23.4934 27.7209C22.7711 28.0209 21.9728 28.1053 21.1934 28.0209C20.4331 27.9272 19.6728 27.6834 18.8934 27.2334C17.5995 26.4445 16.4359 25.4643 15.4435 24.3272C17.4393 21.8897 18.6463 19.6678 19.1025 17.6897C19.3211 16.7522 19.3496 15.9084 19.2546 15.1303C19.1359 14.3927 18.8571 13.6892 18.4373 13.0678C17.9579 12.394 17.318 11.8466 16.5739 11.4739C15.8298 11.1012 15.0043 10.9145 14.1699 10.9303C12.4117 10.9303 10.8435 11.7365 9.89312 13.0584C9.46529 13.6782 9.18879 14.3874 9.08528 15.1303C8.96173 15.9178 8.99024 16.7897 9.23734 17.6897C9.69354 19.6678 10.9291 21.9178 12.8964 24.3459C11.9208 25.5048 10.7545 26.4936 9.44643 27.2709C8.6576 27.7209 7.90678 27.9553 7.14646 28.049C5.96404 28.1984 4.76964 27.8814 3.82286 27.167C2.87608 26.4525 2.25345 25.3982 2.09031 24.2334C1.99527 23.4834 2.0618 22.7334 2.36593 21.8897C2.46097 21.5897 2.60353 21.2897 2.75559 20.9334C2.96468 20.4459 3.21178 19.9397 3.44939 19.4334L3.4874 19.3678C5.54027 14.8959 7.78323 10.3303 10.1117 5.85841L10.2068 5.67091C10.4444 5.22091 10.682 4.74278 10.9291 4.29278C11.1762 3.81466 11.4423 3.35528 11.7844 2.98028C12.0806 2.63155 12.4506 2.3511 12.8685 2.15867C13.2864 1.96625 13.742 1.86652 14.2032 1.86652C14.6644 1.86652 15.12 1.96625 15.5379 2.15867C15.9558 2.3511 16.3258 2.63155 16.622 2.98028C16.9546 3.35528 17.2302 3.81466 17.4773 4.29278C17.7149 4.74278 17.9525 5.23028 18.1997 5.67091L18.2947 5.85841C20.6137 10.3303 22.8566 14.8959 24.9475 19.3678L24.976 19.3959C25.2231 19.8834 25.4322 20.4272 25.6698 20.8959C25.8219 21.2615 25.974 21.5522 26.069 21.8615C26.2496 22.7053 26.3446 23.4553 26.2496 24.2053ZM39.4792 22.6115C38.763 22.6219 38.0537 22.473 37.4038 22.176C36.7539 21.879 36.1802 21.4415 35.7251 20.8959C34.7025 19.7334 34.1598 18.2344 34.2045 16.6959C34.1888 15.1239 34.749 13.5992 35.7821 12.4022C36.26 11.8496 36.8548 11.4071 37.5248 11.1059C38.1947 10.8046 38.9235 10.6518 39.6598 10.6584C40.3525 10.6397 41.0388 10.7951 41.6539 11.11C42.2691 11.4249 42.7929 11.8889 43.1763 12.4584L43.2713 10.9865H46.0465V22.3115H43.2618L43.1668 20.6615C42.7715 21.2697 42.2253 21.768 41.5799 22.1093C40.9345 22.4506 40.2114 22.6235 39.4792 22.6115ZM40.2015 19.9115C40.7527 19.9115 41.2374 19.7615 41.6936 19.4897C42.1118 19.1897 42.454 18.7959 42.7201 18.3178C42.9577 17.8397 43.0812 17.2678 43.0812 16.6303C43.1183 16.0766 43.009 15.5229 42.7641 15.0233C42.5192 14.5238 42.1471 14.0955 41.6841 13.7803C41.2393 13.5069 40.7256 13.3619 40.2015 13.3619C39.6774 13.3619 39.1637 13.5069 38.7189 13.7803C38.3007 14.0803 37.9585 14.474 37.6924 14.9522C37.4411 15.4794 37.3175 16.0571 37.3313 16.6397C37.2942 17.1933 37.4035 17.747 37.6484 18.2466C37.8933 18.7462 38.2654 19.1745 38.7284 19.4897C39.1751 19.7615 39.6598 19.9115 40.2015 19.9115ZM50.7985 7.93028C50.7985 8.25841 50.7415 8.55841 50.5894 8.80216C50.4373 9.03653 50.2283 9.25216 49.9526 9.40216C49.677 9.55216 49.3824 9.60841 49.0783 9.60841C48.7741 9.60841 48.47 9.55216 48.1944 9.40216C47.9337 9.25901 47.7145 9.05246 47.5576 8.80216C47.4104 8.53509 47.3383 8.23409 47.3485 7.93028C47.3485 7.59278 47.4151 7.29278 47.5576 7.05841C47.7097 6.77716 47.9283 6.60841 48.1944 6.45841C48.47 6.30841 48.7646 6.24278 49.0783 6.24278C49.3808 6.23591 49.6799 6.30658 49.9465 6.4479C50.213 6.58922 50.4378 6.79635 50.5989 7.04903C50.7372 7.32236 50.8057 7.62488 50.7985 7.93028ZM47.5671 22.274V10.9678H50.5894V22.2928H47.5576L47.5671 22.274ZM58.6678 13.9303V13.9678C58.5253 13.9022 58.3352 13.874 58.1926 13.8459C58.0026 13.8084 57.8505 13.8084 57.6699 13.8084C56.8241 13.8084 56.1873 14.0522 55.7691 14.5584C55.3129 15.074 55.1038 15.7959 55.1038 16.724V22.2834H52.072V10.9584H54.8567L54.9518 12.674C55.2559 12.074 55.617 11.624 56.1303 11.2865C56.6408 10.9586 57.2417 10.7948 57.8505 10.8178C58.0691 10.8178 58.2782 10.8365 58.4588 10.874C58.5538 10.9022 58.6108 10.9022 58.6678 10.9303V13.9303ZM59.8844 22.274V6.31778H62.9067V12.4115C63.3343 11.8678 63.819 11.4459 64.4273 11.1178C65.3902 10.6521 66.4842 10.52 67.5326 10.7428C68.581 10.9656 69.5227 11.5304 70.2057 12.3459C71.2306 13.5108 71.7734 15.0136 71.7264 16.5553C71.742 18.1273 71.1818 19.652 70.1487 20.849C69.6709 21.4016 69.076 21.8441 68.4061 22.1453C67.7361 22.4466 67.0073 22.5993 66.2711 22.5928C65.5783 22.6115 64.8921 22.4561 64.2769 22.1412C63.6618 21.8263 63.1379 21.3623 62.7546 20.7928L62.6595 22.2647L59.8844 22.2928V22.274ZM65.7293 19.9115C66.2711 19.9115 66.7558 19.7615 67.212 19.4897C67.6302 19.1897 67.9723 18.7959 68.2384 18.3178C68.4855 17.8397 68.5996 17.2678 68.5996 16.6303C68.5996 16.0022 68.4855 15.4303 68.2384 14.9522C67.9888 14.4911 67.6382 14.0908 67.212 13.7803C66.7671 13.5069 66.2535 13.3619 65.7293 13.3619C65.2052 13.3619 64.6916 13.5069 64.2467 13.7803C63.819 14.0803 63.4864 14.474 63.2108 14.9522C62.9594 15.4794 62.8358 16.0571 62.8496 16.6397C62.8126 17.1933 62.9218 17.747 63.1667 18.2466C63.4116 18.7462 63.7837 19.1745 64.2467 19.4897C64.6934 19.7615 65.1781 19.9115 65.7293 19.9115ZM72.8669 22.2834V10.9584H75.6516L75.7466 12.4303C76.0965 11.8661 76.5929 11.4043 77.1844 11.0928C77.7759 10.7813 78.4411 10.6313 79.111 10.6584C79.8771 10.6454 80.6302 10.8554 81.2759 11.2623C81.9216 11.6691 82.4315 12.2548 82.7416 12.9459C83.0742 13.6584 83.2548 14.5397 83.2548 15.524V22.3115H80.223V15.9178C80.223 15.1303 80.0424 14.5115 79.6813 14.0522C79.3201 13.6022 78.8259 13.3584 78.1986 13.3584C77.7424 13.3584 77.3433 13.4522 76.9916 13.6584C76.659 13.874 76.3834 14.1459 76.1743 14.5303C75.9629 14.9188 75.858 15.3551 75.8702 15.7959V22.2834H72.8669ZM84.7659 22.2834V6.30841H87.7977V12.4022C88.2084 11.8554 88.7426 11.4105 89.3579 11.103C89.9733 10.7954 90.6529 10.6336 91.3427 10.6303C92.0589 10.6199 92.7682 10.7688 93.4181 11.0658C94.068 11.3628 94.6418 11.8003 95.0968 12.3459C96.1143 13.5108 96.6534 15.0089 96.608 16.5459C96.6245 18.118 96.0641 19.643 95.0303 20.8397C94.5524 21.3922 93.9576 21.8347 93.2876 22.136C92.6177 22.4372 91.8889 22.59 91.1526 22.5834C90.4599 22.6021 89.7736 22.4467 89.1585 22.1318C88.5433 21.817 88.0195 21.3529 87.6362 20.7834L87.5506 22.2553L84.7659 22.2834ZM90.6394 19.9115C91.1907 19.9115 91.6754 19.7615 92.1221 19.4897C92.5497 19.1897 92.8824 18.7959 93.158 18.3178C93.3956 17.8397 93.5191 17.2678 93.5191 16.6303C93.5562 16.0766 93.4469 15.5229 93.202 15.0233C92.9572 14.5238 92.585 14.0955 92.1221 13.7803C91.6772 13.5069 91.1636 13.3619 90.6394 13.3619C90.1153 13.3619 89.6016 13.5069 89.1568 13.7803C88.7386 14.0803 88.3965 14.474 88.1304 14.9522C87.8651 15.4747 87.7407 16.0559 87.7692 16.6397C87.7322 17.1933 87.8414 17.747 88.0863 18.2466C88.3312 18.7462 88.7033 19.1745 89.1663 19.4897C89.613 19.7615 90.0692 19.9115 90.6394 19.9115Z" fill="#FF385C"/>
</svg>
