<svg width="97" height="30" viewBox="0 0 97 30" fill="none" xmlns="http://www.w3.org/2000/svg">
<g clip-path="url(#clip0_1_2683)">
<path fill-rule="evenodd" clip-rule="evenodd" d="M60.1405 23.4609C54.5071 27.725 46.3418 30 39.3116 30C29.4542 30 20.58 26.256 13.8663 20.0289C13.3388 19.5392 13.8114 18.8719 14.4444 19.2532C21.6898 23.5823 30.6484 26.1866 39.9024 26.1866C46.1434 26.1866 53.009 24.8606 59.3218 22.1089C60.2755 21.6929 61.073 22.7502 60.1405 23.4609Z" fill="#FF9900"/>
<path fill-rule="evenodd" clip-rule="evenodd" d="M62.4827 20.7093C61.7653 19.7646 57.7228 20.2629 55.9083 20.4839C55.3555 20.5533 55.2711 20.0593 55.769 19.7039C58.9887 17.3769 64.2719 18.0486 64.888 18.8286C65.504 19.6129 64.7276 25.0513 61.702 27.647C61.2379 28.0457 60.7948 27.8333 61.0015 27.3047C61.6809 25.5627 63.2043 21.6583 62.4827 20.7093Z" fill="#FF9900"/>
<path fill-rule="evenodd" clip-rule="evenodd" d="M56.0346 3.27605V1.01402C56.0346 0.671685 56.2878 0.442017 56.5916 0.442017H66.4533C66.7698 0.442017 67.023 0.676019 67.023 1.01402V2.95104C67.0187 3.27605 66.7529 3.70072 66.2803 4.37239L61.1701 11.8648C63.069 11.8171 65.0734 12.1075 66.7951 13.1041C67.1833 13.3295 67.2888 13.6588 67.3183 13.9838V16.3975C67.3183 16.7269 66.9639 17.1125 66.5925 16.9132C63.5585 15.2795 59.5286 15.1018 56.1739 16.9305C55.8321 17.1212 55.4734 16.7399 55.4734 16.4105V14.1182C55.4734 13.7498 55.4776 13.1215 55.8363 12.5625L61.7567 3.84372H56.6043C56.2878 3.84372 56.0346 3.61405 56.0346 3.27605Z" fill="#1D1E25"/>
<path fill-rule="evenodd" clip-rule="evenodd" d="M20.0608 17.3898H17.0606C16.7736 17.3682 16.5458 17.1472 16.5247 16.8655V1.05302C16.5247 0.736681 16.7821 0.485343 17.1028 0.485343H19.9005C20.1917 0.498335 20.4237 0.728012 20.4448 1.01401V3.08104H20.4997C21.2297 1.08335 22.6012 0.151672 24.4494 0.151672C26.3272 0.151672 27.5003 1.08335 28.3443 3.08104C29.0701 1.08335 30.72 0.151672 32.4881 0.151672C33.7456 0.151672 35.1213 0.684678 35.961 1.88069C36.9105 3.21104 36.7163 5.14372 36.7163 6.83807L36.7121 16.8178C36.7121 17.1342 36.4547 17.3898 36.134 17.3898H33.138C32.8384 17.3682 32.5978 17.1212 32.5978 16.8178V8.43709C32.5978 7.76975 32.6569 6.10573 32.5134 5.47306C32.2898 4.41138 31.6188 4.11238 30.7496 4.11238C30.0238 4.11238 29.2642 4.61072 28.9562 5.40806C28.6481 6.2054 28.6776 7.54008 28.6776 8.43709V16.8178C28.6776 17.1342 28.4202 17.3898 28.0995 17.3898H25.1035C24.7997 17.3682 24.5634 17.1212 24.5634 16.8178L24.5591 8.43709C24.5591 6.67341 24.8419 4.07771 22.7109 4.07771C20.5546 4.07771 20.639 6.6084 20.639 8.43709V16.8178C20.639 17.1342 20.3815 17.3898 20.0608 17.3898" fill="#1D1E25"/>
<path fill-rule="evenodd" clip-rule="evenodd" d="M75.5129 0.151672C79.9648 0.151672 82.3743 4.07771 82.3743 9.06977C82.3743 13.8928 79.7116 17.7192 75.5129 17.7192C71.1412 17.7192 68.7612 13.7931 68.7612 8.90076C68.7612 3.97804 71.1707 0.151672 75.5129 0.151672ZM75.5382 3.38004C73.327 3.38004 73.1878 6.47407 73.1878 8.40243C73.1878 10.3351 73.1583 14.4605 75.5129 14.4605C77.838 14.4605 77.9477 11.1325 77.9477 9.10443C77.9477 7.76975 77.8929 6.17507 77.5004 4.90972C77.1628 3.80905 76.4919 3.38004 75.5382 3.38004Z" fill="#1D1E25"/>
<path fill-rule="evenodd" clip-rule="evenodd" d="M88.1472 17.3898H85.1596C84.86 17.3682 84.6194 17.1212 84.6194 16.8178L84.6152 1.00101C84.6406 0.710678 84.8895 0.485343 85.1933 0.485343H87.9742C88.2358 0.498335 88.451 0.680345 88.5101 0.927348V3.34537H88.565C89.4047 1.18302 90.582 0.151672 92.6539 0.151672C94 0.151672 95.3124 0.650012 96.1563 2.01502C96.9412 3.28037 96.9412 5.40806 96.9412 6.93774V16.8915C96.9075 17.1688 96.6585 17.3898 96.3631 17.3898H93.3544C93.0801 17.3682 92.8523 17.1602 92.8227 16.8915V8.30275C92.8227 6.57374 93.0168 4.04304 90.9449 4.04304C90.2149 4.04304 89.5439 4.54572 89.2106 5.30839C88.7886 6.27474 88.7337 7.23674 88.7337 8.30275V16.8178C88.7295 17.1342 88.4679 17.3898 88.1472 17.3898" fill="#1D1E25"/>
<path fill-rule="evenodd" clip-rule="evenodd" d="M48.1732 9.83677C48.1732 11.0371 48.2028 12.0381 47.612 13.1041C47.1352 13.9708 46.3756 14.5038 45.5359 14.5038C44.3839 14.5038 43.7087 13.6025 43.7087 12.2721C43.7087 9.6461 46 9.16943 48.1732 9.16943V9.83677ZM51.1988 17.3465C51.0005 17.5285 50.7135 17.5415 50.4899 17.4202C49.494 16.5708 49.3126 16.1765 48.7682 15.3662C47.1225 17.0908 45.9536 17.6065 43.8226 17.6065C41.295 17.6065 39.3328 16.0075 39.3328 12.8051C39.3328 10.3048 40.6493 8.60176 42.5314 7.76975C44.1602 7.03307 46.4347 6.90307 48.1732 6.69941V6.30073C48.1732 5.56839 48.2281 4.70171 47.8061 4.06905C47.4432 3.50137 46.7427 3.26737 46.1224 3.26737C44.9788 3.26737 43.9619 3.86971 43.7129 5.11772C43.6623 5.39506 43.4639 5.66806 43.1897 5.68106L40.2822 5.36039C40.0375 5.30406 39.7632 5.10039 39.8349 4.71472C40.5016 1.09201 43.6918 0 46.5444 0C48.0044 0 49.9118 0.398672 51.0638 1.53402C52.5238 2.9337 52.3846 4.80138 52.3846 6.83374V11.6351C52.3846 13.0781 52.9669 13.7108 53.5155 14.4908C53.7054 14.7682 53.7476 15.1018 53.5028 15.3098C52.8909 15.8342 51.8022 16.8092 51.203 17.3552L51.1988 17.3465" fill="#1D1E25"/>
<path fill-rule="evenodd" clip-rule="evenodd" d="M8.84046 9.83701C8.84046 11.0374 8.86999 12.0384 8.27922 13.1044C7.80238 13.9711 7.04704 14.5041 6.20309 14.5041C5.05108 14.5041 4.38014 13.6027 4.38014 12.2724C4.38014 9.64634 6.67148 9.16967 8.84046 9.16967V9.83701ZM11.866 17.3468C11.6677 17.5288 11.3808 17.5418 11.1571 17.4204C10.1612 16.5711 9.98401 16.1767 9.43544 15.3664C7.78973 17.0911 6.62507 17.6068 4.48985 17.6068C1.96642 17.6068 0 16.0077 0 12.8054C0 10.305 1.32079 8.602 3.1986 7.76999C4.82744 7.03332 7.1019 6.90332 8.84046 6.69965V6.30098C8.84046 5.56863 8.89531 4.70196 8.47755 4.06929C8.11043 3.50161 7.40995 3.26761 6.79386 3.26761C5.6503 3.26761 4.62911 3.86995 4.38014 5.11796C4.3295 5.3953 4.13117 5.6683 3.86111 5.6813L0.949452 5.36063C0.704704 5.3043 0.434637 5.10063 0.502154 4.71496C1.1731 1.09226 4.35904 0.000244141 7.21162 0.000244141C8.67166 0.000244141 10.579 0.398916 11.731 1.53426C13.1911 2.93394 13.0518 4.80163 13.0518 6.83398V11.6354C13.0518 13.0784 13.6341 13.7111 14.1827 14.4911C14.3768 14.7684 14.419 15.1021 14.1743 15.3101C13.5624 15.8344 12.4737 16.8094 11.8745 17.3554L11.866 17.3467" fill="#1D1E25"/>
</g>
<defs>
<clipPath id="clip0_1_2683">
<rect width="96.9412" height="30" fill="white"/>
</clipPath>
</defs>
</svg>
