<svg width="94" height="29" viewBox="0 0 94 29" fill="none" xmlns="http://www.w3.org/2000/svg">
<path d="M69.9895 27.2833L77.8385 18.624L69.9895 9.9635H78.271L82.1585 14.1702L85.9019 9.9635H93.8946L86.0828 18.5882L94.0018 27.2833H85.6863L81.834 23.042L78.0181 27.2833H69.9895Z" fill="#FF6600"/>
<path d="M69.9893 6.08103H61.0997V9.96348H69.9893V15.8147H61.0997V21.1854H69.9893V27.2833H54.5659V0H69.9893V6.08103Z" fill="#FF6600"/>
<path d="M48.0597 0V11.1656H47.9881C46.5477 9.54 44.748 8.97509 42.6598 8.97509C38.3824 8.97509 35.1603 11.8302 34.0293 15.605C32.7394 11.4457 29.413 8.89714 24.4804 8.89714C20.4747 8.89714 17.3115 10.6626 15.6608 13.5394V9.96388H7.38087V6.08183H16.4166V0H0V27.2837H7.38087V15.8147H14.7376C14.5183 16.6572 14.4012 17.5592 14.4012 18.5111C14.4012 24.2024 18.8293 28.1957 24.4804 28.1957C29.2325 28.1957 32.3642 26.0052 34.0207 22.0114H27.6956C26.8399 23.2112 26.1909 23.5675 24.4804 23.5675C22.497 23.5675 20.7869 21.8684 20.7869 19.8542H33.6663C34.2249 24.3747 37.8112 28.2733 42.7327 28.2733C44.8557 28.2733 46.7994 27.2479 47.9881 25.5166H48.0597V27.2829H54.5661V0H48.0597ZM20.9923 15.8962C21.4028 14.1633 22.7716 13.0307 24.4804 13.0307C26.3615 13.0307 27.6608 14.1284 28.0025 15.8962C28.1465 15.8962 20.9923 15.8962 20.9923 15.8962ZM44.1113 23.1292C41.7129 23.1292 40.2226 20.935 40.2226 18.6441C40.2226 16.1952 41.519 13.8403 44.1113 13.8403C46.7994 13.8403 47.8703 16.1952 47.8703 18.6441C47.8699 20.9664 46.7351 23.1292 44.1113 23.1292Z" fill="#652C8F"/>
</svg>
