<svg width="90" height="30" viewBox="0 0 90 30" fill="none" xmlns="http://www.w3.org/2000/svg">
<g clip-path="url(#clip0_1_2711)">
<path d="M38.0492 15.3848C38.0492 19.5489 34.7653 22.6174 30.7352 22.6174C26.7051 22.6174 23.4211 19.5489 23.4211 15.3848C23.4211 11.1913 26.7051 8.15216 30.7352 8.15216C34.7653 8.15216 38.0492 11.1913 38.0492 15.3848ZM34.8474 15.3848C34.8474 12.7826 32.9442 11.0022 30.7352 11.0022C28.5262 11.0022 26.6229 12.7826 26.6229 15.3848C26.6229 17.9609 28.5262 19.7674 30.7352 19.7674C32.9442 19.7674 34.8474 17.9576 34.8474 15.3848Z" fill="#EA4335"/>
<path d="M53.8277 15.3848C53.8277 19.5489 50.5438 22.6174 46.5137 22.6174C42.4836 22.6174 39.1997 19.5489 39.1997 15.3848C39.1997 11.1946 42.4836 8.15216 46.5137 8.15216C50.5438 8.15216 53.8277 11.1913 53.8277 15.3848ZM50.626 15.3848C50.626 12.7826 48.7227 11.0022 46.5137 11.0022C44.3047 11.0022 42.4014 12.7826 42.4014 15.3848C42.4014 17.9609 44.3047 19.7674 46.5137 19.7674C48.7227 19.7674 50.626 17.9576 50.626 15.3848Z" fill="#FBBC05"/>
<path d="M68.9489 8.58912V21.5739C68.9489 26.9152 65.7734 29.0967 62.0194 29.0967C58.4857 29.0967 56.3589 26.7522 55.5568 24.8348L58.3444 23.6837C58.8407 24.8609 60.057 26.25 62.0162 26.25C64.4191 26.25 65.9082 24.7793 65.9082 22.0109V20.9706H65.7964C65.0798 21.8478 63.6992 22.6141 61.957 22.6141C58.3115 22.6141 54.9717 19.4641 54.9717 15.4109C54.9717 11.3282 58.3115 8.15216 61.957 8.15216C63.6959 8.15216 65.0765 8.91846 65.7964 9.76955H65.9082V8.59238H68.9489V8.58912ZM66.135 15.4109C66.135 12.8641 64.4224 11.0022 62.243 11.0022C60.034 11.0022 58.1833 12.8641 58.1833 15.4109C58.1833 17.9315 60.034 19.7674 62.243 19.7674C64.4224 19.7674 66.135 17.9315 66.135 15.4109Z" fill="#4285F4"/>
<path d="M73.9619 0.978271V22.1739H70.8391V0.978271H73.9619Z" fill="#34A853"/>
<path d="M86.1311 17.7652L88.6163 19.4087C87.8142 20.5859 85.8813 22.6141 82.5415 22.6141C78.3997 22.6141 75.3064 19.4381 75.3064 15.3815C75.3064 11.0804 78.4259 8.14893 82.1832 8.14893C85.9668 8.14893 87.8175 11.1359 88.4223 12.75L88.7543 13.5718L79.0078 17.5761C79.754 19.0272 80.9144 19.7674 82.5415 19.7674C84.172 19.7674 85.3028 18.9718 86.1311 17.7652ZM78.4818 15.1631L84.9971 12.4794C84.6388 11.5761 83.5606 10.9468 82.2917 10.9468C80.6645 10.9468 78.3997 12.3718 78.4818 15.1631Z" fill="#EA4335"/>
<path d="M11.6006 13.5033V10.4348H22.0243C22.1262 10.9696 22.1788 11.6022 22.1788 12.287C22.1788 14.5891 21.5444 17.4359 19.4997 19.4641C17.511 21.5185 14.97 22.6141 11.6039 22.6141C5.36477 22.6141 0.118408 17.5728 0.118408 11.3837C0.118408 5.19456 5.36477 0.153259 11.6039 0.153259C15.0554 0.153259 17.5143 1.49674 19.3617 3.24782L17.179 5.41304C15.8542 4.18043 14.0594 3.22174 11.6006 3.22174C7.04453 3.22174 3.48121 6.86413 3.48121 11.3837C3.48121 15.9033 7.04453 19.5457 11.6006 19.5457C14.5558 19.5457 16.2388 18.3685 17.317 17.2989C18.1914 16.4315 18.7667 15.1924 18.9935 13.5L11.6006 13.5033Z" fill="#4285F4"/>
</g>
<defs>
<clipPath id="clip0_1_2711">
<rect width="89.4118" height="30" fill="white"/>
</clipPath>
</defs>
</svg>
