<svg width="115" height="25" viewBox="0 0 115 25" fill="none" xmlns="http://www.w3.org/2000/svg">
<g clip-path="url(#clip0_1_2702)">
<path d="M40.5304 14.0393L39.846 15.9666H39.789C39.6749 15.532 39.4658 14.8706 39.1236 14.077L35.4546 4.9128H31.8616V19.5189H34.2379V10.5058C34.2379 9.93896 34.2379 9.29652 34.2189 8.50292C34.1999 8.10611 34.1618 7.80379 34.1428 7.57704H34.1999C34.3139 8.1439 34.447 8.5596 34.5421 8.82414L38.9525 19.4811H40.6254L44.9978 8.72966C45.0929 8.48402 45.1879 7.99274 45.283 7.57704H45.34C45.283 8.65408 45.245 9.61774 45.226 10.2035V19.4622H47.7544V4.87501H44.2944L40.5304 14.0393ZM50.1497 8.99419H52.6211V19.4622H50.1497V8.99419ZM51.4044 4.57268C50.9862 4.57268 50.644 4.72385 50.3588 4.98838C50.0736 5.25292 49.9216 5.59303 49.9216 6.00873C49.9216 6.40553 50.0736 6.74565 50.3588 7.01018C50.644 7.27472 50.9862 7.40699 51.4044 7.40699C51.8226 7.40699 52.1838 7.25582 52.45 7.01018C52.7351 6.74565 52.8872 6.40553 52.8872 6.00873C52.8872 5.61193 52.7351 5.27181 52.45 4.98838C52.2028 4.72385 51.8416 4.57268 51.4044 4.57268ZM61.3849 8.89972C60.9286 8.80524 60.4534 8.74855 59.9971 8.74855C58.8755 8.74855 57.8489 8.99419 56.9935 9.48547C56.138 9.97675 55.4536 10.657 55.0164 11.5073C54.5601 12.3765 54.332 13.3779 54.332 14.5305C54.332 15.532 54.5601 16.4201 54.9974 17.2326C55.4346 18.0262 56.0429 18.6686 56.8604 19.1032C57.6398 19.5378 58.5523 19.7645 59.5789 19.7645C60.7576 19.7645 61.7651 19.5189 62.5636 19.0654L62.5826 19.0465V16.7791L62.4875 16.8547C62.1263 17.1192 61.7081 17.3459 61.2899 17.4782C60.8526 17.6294 60.4534 17.705 60.1112 17.705C59.1227 17.705 58.3432 17.4215 57.7919 16.798C57.2216 16.1933 56.9364 15.3619 56.9364 14.3227C56.9364 13.2456 57.2216 12.3954 57.8109 11.7718C58.4003 11.1483 59.1797 10.827 60.1302 10.827C60.9286 10.827 61.7461 11.0916 62.4875 11.6206L62.5826 11.6962V9.29652L62.5636 9.27762C62.2404 9.14536 61.8792 8.99419 61.3849 8.89972ZM69.5404 8.82414C68.9321 8.82414 68.3618 9.01309 67.8675 9.40989C67.4493 9.75001 67.1641 10.2413 66.917 10.827H66.898V8.99419H64.4266V19.4622H66.898V14.1148C66.898 13.2079 67.0881 12.452 67.5063 11.9041C67.9245 11.3372 68.4568 11.0538 69.1032 11.0538C69.3313 11.0538 69.5594 11.1105 69.8446 11.1483C70.1107 11.2238 70.3008 11.2994 70.4339 11.3939L70.529 11.4695V9.01309L70.4719 8.99419C70.3008 8.88082 69.9586 8.82414 69.5404 8.82414ZM76.2701 8.76745C74.5402 8.76745 73.1524 9.27763 72.1829 10.2791C71.1943 11.2805 70.7191 12.6599 70.7191 14.3983C70.7191 16.0233 71.2133 17.3459 72.1639 18.3096C73.1144 19.2544 74.4071 19.7456 76.023 19.7456C77.7149 19.7456 79.0647 19.2355 80.0342 18.2151C81.0228 17.1948 81.498 15.8343 81.498 14.1526C81.498 12.4898 81.0418 11.1672 80.1103 10.2035C79.2168 9.23983 77.905 8.76745 76.2701 8.76745ZM78.2472 16.8169C77.791 17.4026 77.0686 17.6861 76.1751 17.6861C75.2816 17.6861 74.5592 17.4026 74.0459 16.7791C73.5326 16.1933 73.2855 15.343 73.2855 14.266C73.2855 13.1512 73.5516 12.3009 74.0459 11.6962C74.5592 11.0916 75.2626 10.7893 76.1561 10.7893C77.0306 10.7893 77.7149 11.0727 78.2092 11.6584C78.7035 12.2442 78.9696 13.0945 78.9696 14.2093C78.9316 15.343 78.7225 16.2311 78.2472 16.8169ZM87.0111 13.3401C86.2317 13.0189 85.7374 12.7733 85.5092 12.5654C85.3191 12.3765 85.2241 12.1119 85.2241 11.7718C85.2241 11.4884 85.3382 11.2049 85.6233 11.016C85.9085 10.827 86.2317 10.7326 86.7069 10.7326C87.1251 10.7326 87.5624 10.8081 87.9806 10.9215C88.3988 11.0349 88.7791 11.205 89.0832 11.4317L89.1783 11.5073V9.20204L89.1212 9.18315C88.8361 9.06978 88.4559 8.9564 87.9996 8.86193C87.5434 8.78635 87.1251 8.74855 86.783 8.74855C85.6043 8.74855 84.6348 9.03198 83.8743 9.65553C83.1139 10.2413 82.7527 11.0349 82.7527 11.9608C82.7527 12.452 82.8288 12.8866 82.9999 13.2456C83.171 13.6047 83.4181 13.9448 83.7603 14.2282C84.1025 14.4927 84.5967 14.7951 85.2811 15.0785C85.8514 15.3241 86.2887 15.5131 86.5548 15.6643C86.821 15.8154 86.9921 15.9855 87.1251 16.1177C87.2202 16.2689 87.2772 16.4579 87.2772 16.7035C87.2772 17.4026 86.7449 17.7427 85.6613 17.7427C85.2431 17.7427 84.8059 17.6672 84.2926 17.4971C83.7793 17.327 83.304 17.0814 82.9048 16.798L82.8098 16.7224V19.1221L82.8668 19.141C83.228 19.3111 83.6652 19.4244 84.1975 19.5567C84.7298 19.6512 85.2051 19.7268 85.6233 19.7268C86.897 19.7268 87.9426 19.4433 88.684 18.8198C89.4444 18.2151 89.8437 17.4404 89.8437 16.439C89.8437 15.7398 89.6535 15.1163 89.2353 14.6439C88.684 14.1904 87.9996 13.718 87.0111 13.3401ZM96.3643 8.76745C94.6343 8.76745 93.2465 9.27763 92.277 10.2791C91.3075 11.2805 90.8132 12.6599 90.8132 14.3983C90.8132 16.0233 91.3075 17.3459 92.258 18.3096C93.2085 19.2544 94.5012 19.7456 96.1171 19.7456C97.8091 19.7456 99.1588 19.2355 100.128 18.2151C101.117 17.1948 101.592 15.8343 101.592 14.1526C101.592 12.4898 101.136 11.1672 100.204 10.2035C99.3109 9.23983 97.9992 8.76745 96.3643 8.76745ZM98.3223 16.8169C97.8661 17.4026 97.1437 17.6861 96.2502 17.6861C95.3377 17.6861 94.6343 17.4026 94.121 16.7791C93.6077 16.1933 93.3606 15.343 93.3606 14.266C93.3606 13.1512 93.6267 12.3009 94.121 11.6962C94.6343 11.0916 95.3377 10.7893 96.2312 10.7893C97.0867 10.7893 97.79 11.0727 98.2843 11.6584C98.7786 12.2442 99.0447 13.0945 99.0447 14.2093C99.0447 15.343 98.7976 16.2311 98.3223 16.8169ZM114.804 11.016V8.99419H112.314V5.89536L112.238 5.91425L109.881 6.61338L109.824 6.63228V8.99419H106.098V7.67152C106.098 7.06687 106.25 6.59449 106.516 6.29216C106.782 5.98983 107.181 5.83867 107.676 5.83867C108.018 5.83867 108.379 5.91425 108.778 6.08431L108.873 6.141V4.00582L108.816 3.98693C108.474 3.87356 108.018 3.79797 107.428 3.79797C106.687 3.79797 106.041 3.96803 105.451 4.25146C104.862 4.57268 104.425 5.00728 104.102 5.59303C103.778 6.15989 103.607 6.80233 103.607 7.53925V8.99419H101.877V10.9971H103.607V19.4622H106.098V11.016H109.824V16.4012C109.824 18.6119 110.869 19.7268 112.96 19.7268C113.303 19.7268 113.664 19.6701 114.006 19.6134C114.367 19.5378 114.633 19.4433 114.785 19.3677L114.804 19.3488V17.327L114.709 17.4026C114.557 17.4971 114.424 17.5727 114.196 17.6294C114.006 17.6861 113.835 17.705 113.702 17.705C113.208 17.705 112.865 17.5916 112.618 17.3081C112.39 17.0436 112.276 16.609 112.276 15.9666V11.016H114.804Z" fill="#737373"/>
<path d="M0 0H11.6534V11.5828H0V0Z" fill="#F25022"/>
<path d="M12.8701 0H24.5236V11.5828H12.8701V0Z" fill="#7FBA00"/>
<path d="M0 12.7922H11.6534V24.375H0V12.7922Z" fill="#00A4EF"/>
<path d="M12.8701 12.7922H24.5236V24.375H12.8701V12.7922Z" fill="#FFB900"/>
</g>
<defs>
<clipPath id="clip0_1_2702">
<rect width="114.824" height="24.375" fill="white"/>
</clipPath>
</defs>
</svg>
