<svg width="93" height="32" viewBox="0 0 93 32" fill="none" xmlns="http://www.w3.org/2000/svg">
<path fill-rule="evenodd" clip-rule="evenodd" d="M81.2118 14.8205L75.3415 24.9777L70.333 24.9976L81.2118 5.87959L92.0499 24.9976H86.9621L81.2118 14.8195V14.8205ZM65.4048 20.576H71.0143L68.4099 24.9976H61.0985L61.1184 19.6137V5.99712H65.4257L65.4058 20.576H65.4048ZM50.0204 5.99812C55.369 6.01804 59.6962 10.2614 59.6763 15.5068C59.6565 20.7333 55.3294 24.9777 49.9797 24.9777C44.6509 24.9578 40.3238 20.7144 40.3238 15.468C40.3436 10.2415 44.6707 5.99812 50.0204 5.99812ZM50.0005 20.557C52.8648 20.557 55.1677 18.2969 55.1677 15.5068C55.1885 12.7178 52.8648 10.4377 50.0204 10.4377C47.175 10.4178 44.8512 12.6978 44.8512 15.4879C44.8314 18.277 47.1551 20.557 49.9996 20.557H50.0005ZM32.3509 13.9977C32.2914 13.2108 32.09 12.1699 31.7895 11.1688C31.1712 9.10107 30.0962 7.20012 28.6446 5.60765C27.8829 4.78289 27.0221 4.01589 25.7387 3.11244C24.7604 2.62754 23.7985 2.10994 22.8546 1.56052C22.2338 1.20691 21.4919 0.773609 20.511 0.459839C19.348 0.184122 18.1592 0.0328689 16.9644 0.00860896C15.8041 -0.0312348 14.6407 0.0683746 13.519 0.283531C12.3368 0.479761 11.355 0.793531 10.0528 1.1083C7.10717 2.38529 4.8241 4.31074 2.86038 6.86572C-3.99082 16.473 2.19986 29.9323 13.639 31.523C15.5224 31.779 17.4058 31.6804 19.188 31.268L20.4505 30.9343C20.4902 30.9144 20.5507 30.8945 20.5904 30.8945L22.0334 30.3446C22.1128 30.3048 22.1733 30.2849 22.2536 30.246L22.8546 29.9711C24.0078 29.3995 25.0903 28.6941 26.0799 27.8694C25.1791 28.6914 24.1993 29.4218 23.1551 30.0498L23.2146 30.0896C23.416 30.0299 23.5955 29.9711 23.7958 29.9323C23.7958 29.9323 23.7958 30.246 23.7561 30.1873C23.4358 30.4233 23.9366 30.2072 24.5773 29.8725C25.219 29.5388 25.8399 29.1254 26.4002 28.6543C27.2224 27.967 27.9434 27.2199 28.965 26.0027C30.0063 24.1748 31.3095 22.5831 31.9105 20.4415C32.1109 19.8717 32.2904 19.2043 32.4114 18.516C32.5304 17.8287 32.6117 17.1215 32.6117 16.3944C32.5919 15.6672 32.5115 14.9201 32.3509 13.9977ZM17.5258 30.1484C21.0317 29.5976 23.9763 27.6532 26.3804 25.0006C27.0419 24.0374 27.5626 23.1528 28.2033 22.1906C29.0046 20.2253 28.9451 18.4772 29.205 17.24C29.5263 14.9988 28.7646 13.1919 28.1239 11.2665C27.1421 9.02625 25.8399 7.35679 23.5558 6.05988C17.7856 2.4839 9.93275 3.48498 6.1868 8.83002C6.16697 8.83002 6.06581 8.96748 5.86547 9.2424C6.1263 8.14271 6.78782 7.49425 7.44834 6.86472C9.41206 5.25404 11.6961 3.97605 14.3005 3.34851C17.2461 3.03375 20.1699 3.34851 22.7941 4.6255C26.7216 6.86472 29.326 10.3829 29.9865 14.5466V18.3985C29.1653 24.7058 23.7561 29.5 17.5258 30.1484ZM31.9304 15.8047C31.7895 6.57087 22.6344 0.3423 13.7194 1.60037C11.1149 2.24783 8.26954 3.54474 6.24631 5.35265C5.26445 6.00011 4.80427 7.19941 3.82241 8.16164C-0.105033 13.9191 0.57731 21.2872 5.46479 25.7676C6.09172 26.3901 6.76115 26.9679 7.46818 27.4968C3.38206 25.0394 1.53834 21.325 0.897654 16.8077C0.897654 15.1961 1.218 13.6043 1.55818 11.9936C3.84323 4.93927 11.0346 -0.188618 18.8687 1.1083C20.1709 1.42306 21.4731 1.75675 22.7961 2.07152C24.4385 2.71898 26.061 3.6822 27.3632 4.96019C28.6654 6.23619 29.6473 7.84787 30.6292 9.43863C31.2897 10.7166 31.611 12.3273 31.9314 13.6043C31.9909 14.3314 31.9909 15.0785 31.9314 15.8057L31.9304 15.8047Z" fill="#1D1E25"/>
<path fill-rule="evenodd" clip-rule="evenodd" d="M23.7966 15.9431C23.7966 19.9125 20.4712 23.1349 16.3643 23.1349C12.2583 23.1349 8.93188 19.9125 8.93188 15.9431C8.93188 11.9746 12.2573 8.75226 16.3643 8.75226C20.4712 8.75226 23.7966 11.9746 23.7966 15.9441V15.9431Z" fill="white"/>
<path fill-rule="evenodd" clip-rule="evenodd" d="M23.8373 14.7248C23.7371 14.175 23.5765 13.7427 23.4168 13.1341C22.7751 11.7973 21.8339 10.7564 20.5912 9.87187C15.9437 6.78796 9.55272 9.75433 8.87236 15.0207C8.61252 17.1035 9.35337 19.1077 10.6754 20.6406C10.2747 20.2273 9.83439 19.796 9.53388 19.3039L9.49421 19.3437C9.53388 19.4613 9.69455 19.54 9.73422 19.6575C9.73422 19.6575 9.57355 19.6575 9.61421 19.6376C9.49421 19.5011 9.59438 19.7173 9.77389 20.0111C9.93456 20.306 10.1349 20.5819 10.3749 20.8369C10.7161 21.2104 11.0761 21.5441 11.6771 21.9963C12.5598 22.4476 13.3403 23.0372 14.3619 23.3122C14.6425 23.3919 14.9629 23.4695 15.2842 23.5283C15.6244 23.5881 15.9447 23.608 16.3057 23.608C16.6459 23.608 17.0069 23.5682 17.4473 23.4885C17.9014 23.4348 18.3502 23.3431 18.7891 23.2145C19.7696 22.9181 20.6728 22.4079 21.4342 21.7204C21.8151 21.3678 22.3566 20.9156 22.7761 20.3259C23.1173 19.6585 23.1569 19.3238 23.3176 19.029C23.4773 18.7341 23.6776 18.4004 23.8184 17.9482C23.9332 17.4117 24.0003 16.866 24.0188 16.3176C23.999 15.7677 23.9593 15.2368 23.8383 14.7258L23.8373 14.7248ZM19.0688 11.0712C19.7502 11.4636 19.8503 11.5224 19.4893 11.2674C20.011 11.3849 20.3314 11.6798 20.6517 11.9746C21.4332 12.8592 22.0739 13.9001 22.3943 15.0984C22.5748 16.4541 22.4339 17.8097 21.8537 19.009C20.8124 20.8359 19.1492 22.0541 17.1656 22.3878C16.9454 22.3878 16.7054 22.3878 16.4843 22.4077C17.0456 22.3091 17.4066 21.9555 18.4281 21.5819C19.529 21.1895 20.7717 19.3627 21.3737 18.3008C23.1361 15.4121 21.0524 12.7406 19.0688 11.0712ZM15.303 22.4266C12.2583 22.1129 9.91373 19.6177 9.59339 16.729C9.87307 18.3407 10.8351 19.5778 12.1373 20.6785C12.5985 20.9733 13.2788 21.3857 13.74 21.6806C14.5215 21.9754 14.9817 22.2902 15.7434 22.4276H15.303V22.4266ZM23.4961 17.1812C23.3573 17.7908 23.2164 18.3795 23.0756 18.9891C22.7751 19.7362 22.3347 20.5022 21.7337 21.1108C21.1327 21.7204 20.371 22.1916 19.6103 22.6438C19.0093 22.9576 18.2476 23.1149 17.6268 23.2713C17.2658 23.3112 16.8453 23.1538 16.4843 23.1349C20.9324 23.0163 23.9771 18.8716 23.3166 14.7647C22.9953 13.5664 22.3546 12.5245 21.5731 11.4835C21.2527 11.0313 20.6309 10.7564 20.1707 10.3042C17.3858 8.55603 13.7003 8.90964 11.5968 11.2086C11.3018 11.5107 11.0271 11.8322 10.7746 12.1709C11.8973 10.5203 13.7003 9.36187 15.8634 9.02718C16.6251 9.00726 17.4066 9.14572 18.1673 9.28318C21.5334 10.3042 24.0376 13.5664 23.4961 17.1822V17.1812Z" fill="#D7DF23"/>
</svg>
