<svg width="79" height="28" viewBox="0 0 79 28" fill="none" xmlns="http://www.w3.org/2000/svg">
<path d="M65.0013 27.57C72.5104 27.57 78.6203 21.3855 78.6203 13.785C78.6203 6.18 72.5104 0 65.0013 0C57.4907 0 51.3823 6.18 51.3823 13.785C51.3823 21.3855 57.4907 27.57 65.0013 27.57ZM65.0013 8.8695C67.6773 8.8695 69.8567 11.0745 69.8567 13.7835C69.8567 16.4925 67.6758 18.6945 64.9998 18.6945C62.3222 18.6945 60.1459 16.4925 60.1459 13.782C60.1459 11.07 62.3237 8.8665 64.9998 8.8665L65.0013 8.8695ZM13.619 27.57C21.1281 27.57 27.238 21.3855 27.238 13.785C27.238 6.18 21.1281 0 13.619 0C6.1114 0 0 6.18 0 13.785C0 21.3855 6.1114 27.57 13.619 27.57ZM13.619 8.8695C16.2966 8.8695 18.4744 11.0745 18.4744 13.7835C18.4744 16.4925 16.2966 18.6945 13.619 18.6945C10.9429 18.6945 8.76658 16.4925 8.76658 13.782C8.76658 11.07 10.9444 8.8665 13.619 8.8665V8.8695ZM39.3027 8.559L35.1215 0.18H25.3316L34.4756 18.51V27.1395H44.1312V18.51L53.2752 0.18H43.4809L39.3042 8.559H39.3027Z" fill="#EE2E24"/>
</svg>
