<svg width="113" height="27" viewBox="0 0 113 27" fill="none" xmlns="http://www.w3.org/2000/svg">
<g clip-path="url(#clip0_1_2727)">
<path d="M40.1927 9.33679V10.8244H40.2386C40.778 10.028 41.6736 9.08995 43.6588 9.08995C45.2032 9.08995 46.3879 9.86998 46.8956 11.0482H46.9415C47.3752 10.4525 47.8723 10.0016 48.4294 9.68237C49.0888 9.30388 49.8222 9.08666 50.746 9.08666C52.8369 9.08666 54.6881 10.4361 54.6881 13.8392V20.2934H51.5006V14.2901C51.5006 12.5655 50.8729 11.5683 49.5683 11.5683C48.6128 11.5683 47.9182 12.1673 47.6537 12.9045C47.562 13.1579 47.5197 13.5035 47.5197 13.7931V20.2967H44.3322V14.0466C44.3322 12.582 43.7293 11.565 42.4423 11.565C41.4127 11.565 40.7675 12.322 40.503 12.9703C40.3902 13.2468 40.3549 13.566 40.3549 13.8656V20.2934H37.1639V9.33679H40.1927ZM71.1403 9.33679V11.4037H71.2285C71.8138 9.8239 73.203 9.08995 74.423 9.08995C74.7298 9.08995 74.899 9.11299 75.1458 9.15906V12.029C74.8532 11.9895 74.5817 11.95 74.2009 11.95C72.8187 11.95 71.8561 12.7004 71.6128 13.8754C71.5599 14.119 71.5423 14.3823 71.5423 14.6851V20.2967H68.2702V9.33679H71.1403ZM79.5886 5.70654V9.15577H82.3529V11.9468H79.5886V16.0641C79.5886 17.3971 79.9517 18.0421 81.0307 18.0421C81.5384 18.0421 81.9122 17.9829 82.2366 17.9072L82.2789 20.221C81.8452 20.3724 80.9214 20.5369 79.9835 20.5369C78.8798 20.5369 77.9596 20.1782 77.3989 19.622C76.7572 18.9867 76.461 17.9467 76.461 16.4656V5.70654H79.5886ZM34.9425 20.2934H31.7691V5.70654H34.9425V20.2934ZM26.4802 16.3801C26.4802 16.5808 26.4625 16.7915 26.4026 16.9725C26.1558 17.7328 25.3131 18.3746 24.2623 18.3746C23.3843 18.3746 22.6862 17.9105 22.6862 16.9264C22.6862 15.4223 24.4633 15.0043 26.4837 15.0142V16.3801H26.4802ZM29.65 13.7569C29.65 11.272 28.5147 9.08995 24.6749 9.08995C22.7038 9.08995 21.1383 9.60667 20.285 10.0674L20.9091 12.0619C21.6883 11.6012 22.933 11.2227 24.1107 11.2227C26.0606 11.2194 26.3779 12.2528 26.3779 12.9144V13.0724C22.1291 13.0658 19.4458 14.4382 19.4458 17.2358C19.4458 18.944 20.8104 20.5435 23.1869 20.5435C24.6502 20.5435 25.8702 20.0004 26.6036 19.1283H26.6741C26.6741 19.1283 27.1607 21.0207 29.8334 20.2967C29.6923 19.5068 29.6465 18.6675 29.6465 17.6571V13.7569H29.65ZM3.50483 5.70654C3.83275 7.25014 4.76361 11.7328 4.76361 11.7328C5.15499 13.5759 5.51464 15.5079 5.78614 17.035H5.83551C6.09996 15.4124 6.51602 13.8754 6.9603 11.9731L8.52936 5.70654H12.0025L13.4693 12.1344C13.8536 13.9215 14.1604 15.3005 14.4037 16.9626H14.4495C14.7139 15.2841 15.0595 13.8491 15.4368 12.0126L16.8472 5.70654H20.1792L16.0503 20.2934C13.4199 20.8298 12.4115 19.8425 12.0518 18.2758C11.6922 16.7059 10.987 13.7207 10.987 13.7207C10.6238 12.085 10.3417 10.933 10.1443 9.25451H10.0949C9.81282 10.9166 9.51664 12.0817 9.07942 13.7174L7.34816 20.2967C4.66135 20.7969 3.73049 20.0564 3.2157 18.0454C2.77143 16.3241 0 5.70983 0 5.70983H3.50483V5.70654ZM62.9812 16.3801C62.9812 16.5808 62.9635 16.7915 62.9036 16.9725C62.6568 17.7328 61.8141 18.3746 60.7633 18.3746C59.8854 18.3746 59.1872 17.9105 59.1872 16.9264C59.1872 15.4223 60.9643 15.0043 62.9847 15.0142V16.3801H62.9812ZM66.151 13.7569C66.151 11.272 65.0157 9.08995 61.1759 9.08995C59.2048 9.08995 57.6393 9.60667 56.786 10.0674L57.4101 12.0619C58.1894 11.6012 59.434 11.2227 60.6117 11.2227C62.5581 11.2194 62.8789 12.2528 62.8789 12.9144V13.0724C58.6336 13.0658 55.9504 14.4382 55.9504 17.2358C55.9504 18.944 57.3184 20.5435 59.6914 20.5435C61.1512 20.5435 62.3747 20.0004 63.1046 19.1283H63.1786C63.1786 19.1283 63.6652 21.0207 66.3379 20.2967C66.1969 19.5068 66.151 18.6675 66.151 17.6571V13.7569Z" fill="#041E42"/>
<path d="M95.2168 15.2695C95.5296 15.8022 95.5085 16.3968 95.1746 16.6683L89.4035 20.624C88.8025 20.9643 87.9028 20.5518 87.3932 19.6892C86.88 18.8232 86.9714 17.8574 87.5724 17.5172L93.9621 14.6097C94.3627 14.4585 94.904 14.7368 95.2168 15.2695ZM102.812 15.2695C103.128 14.7368 103.666 14.4619 104.067 14.6062L110.46 17.5137C111.061 17.854 111.149 18.8197 110.639 19.6858C110.126 20.5484 109.223 20.9574 108.625 20.6206L102.854 16.6649C102.524 16.3968 102.499 15.7988 102.812 15.2695ZM99.0126 17.4141C99.6417 17.4141 100.158 17.7303 100.229 18.1461L100.851 25.0128C100.851 25.6932 100.039 26.25 99.0161 26.25C97.9969 26.25 97.1815 25.6932 97.1815 25.0128L97.8001 18.1461C97.8704 17.7303 98.387 17.4141 99.0126 17.4141ZM102.854 9.58513L108.625 5.62598C109.223 5.28574 110.126 5.69472 110.639 6.56078C111.149 7.42685 111.061 8.39258 110.46 8.73282L104.067 11.6438C103.666 11.7881 103.125 11.5132 102.812 10.9805C102.499 10.4478 102.524 9.8532 102.854 9.58513ZM93.9621 11.6438L87.5724 8.73282C86.9749 8.39258 86.8835 7.42685 87.3932 6.56078C87.9028 5.69472 88.8061 5.28574 89.4035 5.62598L95.1746 9.58513C95.5085 9.84976 95.5296 10.4478 95.2168 10.9805C94.904 11.5132 94.3627 11.7881 93.9621 11.6438ZM97.8001 8.10389L97.1815 1.23723C97.1815 0.556756 97.9934 0 99.0161 0C100.039 0 100.851 0.556756 100.851 1.23723L100.229 8.10389C100.158 8.5163 99.6417 8.83592 99.0126 8.83592C98.387 8.83592 97.8704 8.5163 97.8001 8.10389ZM112.2 20.5965V20.4247H112.358C112.41 20.4247 112.446 20.4591 112.446 20.5106C112.446 20.5587 112.41 20.5965 112.358 20.5965H112.2ZM112.07 20.9093C112.07 20.9265 112.084 20.9436 112.105 20.9436H112.171C112.189 20.9436 112.207 20.9265 112.207 20.9093V20.7134H112.316L112.403 20.9196C112.41 20.9333 112.421 20.9436 112.435 20.9436H112.516C112.541 20.9436 112.558 20.9196 112.548 20.8955C112.516 20.8337 112.484 20.7684 112.453 20.7031C112.505 20.6859 112.586 20.6343 112.586 20.5106C112.586 20.38 112.477 20.3044 112.368 20.3044H112.105C112.087 20.3044 112.07 20.3216 112.07 20.3388V20.9093ZM111.785 20.624C111.785 20.3456 112.017 20.1188 112.302 20.1188C112.586 20.1188 112.818 20.3422 112.818 20.624C112.818 20.9024 112.59 21.1292 112.302 21.1292C112.013 21.1292 111.785 20.9024 111.785 20.624ZM111.662 20.624C111.662 20.9677 111.947 21.2495 112.302 21.2495C112.653 21.2495 112.941 20.9677 112.941 20.624C112.941 20.2803 112.653 19.9985 112.302 19.9985C111.947 19.9985 111.662 20.2803 111.662 20.624Z" fill="#FFC124"/>
</g>
<defs>
<clipPath id="clip0_1_2727">
<rect width="112.941" height="26.25" fill="white"/>
</clipPath>
</defs>
</svg>
