<svg width="162" height="162" viewBox="0 0 162 162" fill="none" xmlns="http://www.w3.org/2000/svg">
<rect x="67.0283" y="97.4426" width="3.85427" height="41.4334" transform="rotate(-135 67.0283 97.4426)" fill="white"/>
<rect x="69.8916" y="68.9634" width="3.85427" height="26.9799" transform="rotate(-90 69.8916 68.9634)" fill="white"/>
<rect x="96.8916" y="92.1089" width="3.85427" height="26.9799" transform="rotate(180 96.8916 92.1089)" fill="white"/>
<path d="M88.4268 25.0645L87.8531 28.2714C87.7057 28.4077 87.4883 28.5474 87.2008 28.6904C86.9178 28.8303 86.5567 28.9303 86.1173 28.9906C85.678 29.0509 85.1488 29.0257 84.5297 28.915C84.0029 28.8208 83.5361 28.646 83.1294 28.3907C82.7234 28.1316 82.3917 27.8004 82.1345 27.3973C81.8811 26.9948 81.7122 26.5301 81.6279 26.0031C81.5443 25.4723 81.5596 24.8877 81.6738 24.2494L81.778 23.6668C81.8914 23.0324 82.0714 22.4812 82.3178 22.0134C82.5687 21.5424 82.875 21.1607 83.2369 20.8683C83.5987 20.5759 84.0069 20.379 84.4615 20.2778C84.9207 20.1734 85.4194 20.1694 85.9578 20.2657C86.646 20.3888 87.1945 20.6059 87.6031 20.9171C88.0163 21.2252 88.3098 21.6031 88.4837 22.0508C88.6575 22.4986 88.7307 22.9879 88.7033 23.5187L87.2844 23.2649C87.2905 22.9644 87.2469 22.6867 87.1536 22.432C87.0641 22.1779 86.908 21.9634 86.6853 21.7887C86.4672 21.6108 86.1639 21.4871 85.7755 21.4176C85.441 21.3578 85.1355 21.3686 84.859 21.4501C84.5825 21.5316 84.3377 21.6803 84.1245 21.8961C83.9151 22.1126 83.7365 22.3902 83.5886 22.7288C83.4407 23.0674 83.3262 23.4636 83.245 23.9174L83.1388 24.5114C83.0562 24.9729 83.0311 25.391 83.0632 25.7658C83.0992 26.1413 83.1875 26.4686 83.3281 26.7477C83.4725 27.0275 83.6679 27.2549 83.9144 27.4299C84.1615 27.6011 84.4543 27.717 84.7927 27.7775C85.1234 27.8367 85.3993 27.8582 85.6204 27.8422C85.8422 27.8224 86.0215 27.785 86.1583 27.7301C86.2996 27.6721 86.4114 27.6127 86.4937 27.552L86.7919 25.8851L85.0442 25.5725L85.2372 24.4939L88.4268 25.0645Z" fill="white"/>
<path d="M95.9629 29.9371L95.5988 31.0448L91.296 29.6304L91.6601 28.5227L95.9629 29.9371ZM94.3553 21.6557L91.6912 29.7603L90.2941 29.301L92.9582 21.1964L94.3553 21.6557ZM96.5882 26.1397L96.2296 27.2307L92.489 26.0011L92.8476 24.9101L96.5882 26.1397ZM98.2351 22.931L97.8691 24.0443L93.5942 22.639L93.9601 21.5258L98.2351 22.931Z" fill="white"/>
<path d="M104.712 25.1668L100.899 32.7983L99.5937 32.1462L103.407 24.5147L104.712 25.1668ZM107.108 26.3637L106.584 27.412L100.509 24.3765L101.033 23.3282L107.108 26.3637Z" fill="white"/>
<path d="M115.235 31.0078L110.117 37.8328L108.94 36.9504L114.059 30.1254L115.235 31.0078Z" fill="white"/>
<path d="M123.492 37.8175L117.265 43.6495L116.26 42.5762L118.104 35.6059L113.644 39.7836L112.639 38.7102L118.865 32.8782L119.871 33.9516L118.025 40.9384L122.494 36.7527L123.492 37.8175Z" fill="white"/>
<path d="M131.794 47.8637L124.386 52.0942L123.662 50.8273L131.071 46.5968L131.794 47.8637ZM133.122 50.1891L132.104 50.7702L128.737 44.8729L129.754 44.2918L133.122 50.1891Z" fill="white"/>
<path d="M133.491 59.9229L133.049 60.0793C132.442 60.2943 131.869 60.408 131.33 60.4204C130.792 60.4328 130.301 60.3517 129.858 60.177C129.416 60.006 129.033 59.7481 128.708 59.4032C128.386 59.057 128.138 58.6353 127.962 58.1382C127.787 57.6448 127.716 57.1624 127.748 56.6911C127.785 56.2222 127.92 55.7786 128.153 55.3604C128.386 54.9423 128.715 54.5649 129.139 54.2285C129.564 53.8957 130.08 53.6218 130.688 53.4068L131.13 53.2504C131.737 53.0353 132.309 52.9241 132.845 52.9167C133.385 52.9079 133.876 52.9909 134.319 53.1656C134.767 53.3427 135.151 53.6025 135.471 53.945C135.797 54.2898 136.046 54.709 136.221 55.2024C136.397 55.6996 136.467 56.1844 136.431 56.657C136.399 57.1284 136.264 57.5719 136.026 57.9877C135.791 58.4022 135.461 58.774 135.035 59.1031C134.613 59.4346 134.099 59.7078 133.491 59.9229ZM132.559 58.6928L133.012 58.5325C133.461 58.3735 133.841 58.1892 134.152 57.9796C134.468 57.7724 134.712 57.5431 134.885 57.2916C135.062 57.0424 135.166 56.7755 135.198 56.4908C135.233 56.2047 135.197 55.9089 135.089 55.6032C134.981 55.2976 134.823 55.0466 134.617 54.8503C134.415 54.6526 134.165 54.5108 133.87 54.4248C133.579 54.3412 133.245 54.3165 132.868 54.3506C132.494 54.3835 132.082 54.4794 131.633 54.6384L131.18 54.7987C130.731 54.9577 130.349 55.1427 130.034 55.3536C129.719 55.5645 129.472 55.797 129.293 56.0511C129.118 56.3076 129.013 56.577 128.976 56.8593C128.943 57.1404 128.98 57.4338 129.088 57.7394C129.198 58.0487 129.354 58.3022 129.557 58.4999C129.763 58.6962 130.013 58.8355 130.307 58.9178C130.605 58.9988 130.942 59.0204 131.319 58.9826C131.696 58.9484 132.109 58.8519 132.559 58.6928Z" fill="white"/>
<path d="M139.995 66.9823L140.253 68.4243L134.641 69.4281C134.003 69.5423 133.443 69.4995 132.963 69.2997C132.483 69.0999 132.091 68.7811 131.786 68.3435C131.486 67.9091 131.284 67.3996 131.18 66.8152C131.072 66.2115 131.083 65.6539 131.214 65.1424C131.348 64.6302 131.606 64.1991 131.988 63.8491C132.371 63.5029 132.881 63.2727 133.519 63.1585L139.132 62.1547L139.389 63.5966L133.777 64.6005C133.374 64.6727 133.053 64.8014 132.817 64.9866C132.584 65.1711 132.429 65.4013 132.351 65.6771C132.273 65.9529 132.265 66.2638 132.327 66.6099C132.389 66.9559 132.504 67.2429 132.672 67.4709C132.84 67.7026 133.066 67.8647 133.348 67.957C133.634 68.0487 133.979 68.0584 134.383 67.9862L139.995 66.9823Z" fill="white"/>
<path d="M135.707 76.8258L135.736 78.2904C135.176 78.2543 134.675 78.1077 134.233 77.8505C133.794 77.5933 133.445 77.227 133.186 76.7514C132.927 76.2759 132.79 75.6944 132.777 75.007C132.767 74.4798 132.852 74.0034 133.031 73.578C133.214 73.1525 133.477 72.7861 133.818 72.4786C134.164 72.1711 134.583 71.9325 135.076 71.7628C135.569 71.597 136.122 71.5082 136.736 71.4964L137.444 71.4827C138.058 71.4709 138.614 71.5402 139.113 71.6908C139.612 71.8452 140.04 72.0714 140.398 72.3692C140.759 72.667 141.037 73.0269 141.233 73.449C141.429 73.875 141.532 74.3555 141.542 74.8906C141.555 75.5701 141.441 76.1467 141.2 76.6201C140.96 77.0936 140.621 77.4635 140.185 77.7298C139.748 78 139.246 78.1699 138.677 78.2395L138.648 76.7749C139.015 76.7288 139.327 76.6368 139.586 76.4989C139.846 76.365 140.041 76.1698 140.173 75.9133C140.309 75.6567 140.373 75.3234 140.365 74.9133C140.358 74.5774 140.29 74.2857 140.16 74.0382C140.03 73.7906 139.843 73.5852 139.597 73.422C139.352 73.2587 139.051 73.1375 138.694 73.0585C138.341 72.9833 137.938 72.95 137.485 72.9588L136.764 72.9727C136.334 72.981 135.945 73.0256 135.595 73.1066C135.248 73.1914 134.952 73.3143 134.705 73.4754C134.458 73.6403 134.269 73.8472 134.137 74.0958C134.005 74.3445 133.942 74.6407 133.949 74.9844C133.957 75.4023 134.03 75.7388 134.168 75.994C134.305 76.2531 134.503 76.4466 134.759 76.5745C135.019 76.7062 135.335 76.79 135.707 76.8258Z" fill="white"/>
<path d="M137.783 86.808L136.632 86.6203L137.361 82.1501L138.512 82.3378L137.783 86.808ZM141.969 83.2698L133.549 81.8965L133.786 80.445L142.206 81.8183L141.969 83.2698ZM141.117 88.4976L132.697 87.1243L132.932 85.6785L141.352 87.0519L141.117 88.4976Z" fill="white"/>
<path d="M125.782 115.312L123.287 113.218C123.242 113.022 123.229 112.764 123.248 112.444C123.268 112.129 123.361 111.766 123.527 111.355C123.694 110.944 123.979 110.497 124.383 110.015C124.727 109.605 125.111 109.288 125.535 109.062C125.962 108.839 126.414 108.716 126.892 108.694C127.367 108.674 127.854 108.759 128.353 108.949C128.855 109.14 129.355 109.445 129.852 109.862L130.305 110.242C130.799 110.656 131.187 111.087 131.47 111.533C131.754 111.985 131.932 112.441 132.006 112.901C132.079 113.36 132.046 113.812 131.908 114.257C131.77 114.707 131.525 115.141 131.173 115.56C130.724 116.096 130.263 116.463 129.789 116.663C129.316 116.868 128.843 116.934 128.368 116.862C127.893 116.79 127.432 116.61 126.985 116.322L127.912 115.217C128.169 115.372 128.432 115.473 128.699 115.519C128.964 115.568 129.228 115.539 129.49 115.433C129.753 115.332 130.012 115.131 130.265 114.829C130.484 114.568 130.626 114.298 130.693 114.018C130.76 113.737 130.753 113.451 130.672 113.159C130.589 112.869 130.437 112.576 130.217 112.279C129.997 111.982 129.71 111.686 129.357 111.39L128.895 111.002C128.536 110.7 128.186 110.47 127.845 110.312C127.501 110.156 127.173 110.069 126.861 110.052C126.547 110.038 126.252 110.095 125.978 110.221C125.706 110.35 125.46 110.546 125.239 110.81C125.023 111.067 124.867 111.296 124.771 111.495C124.677 111.698 124.621 111.872 124.6 112.018C124.58 112.169 124.576 112.296 124.588 112.397L125.885 113.486L127.026 112.126L127.865 112.83L125.782 115.312Z" fill="white"/>
<path d="M117.528 119.657L116.749 118.788L120.122 115.765L120.9 116.633L117.528 119.657ZM125.507 122.395L119.812 116.043L120.907 115.061L126.602 121.413L125.507 122.395ZM120.507 122.093L119.74 121.238L122.672 118.609L123.438 119.465L120.507 122.093ZM122.466 125.121L121.684 124.248L125.034 121.245L125.817 122.117L122.466 125.121Z" fill="white"/>
<path d="M117.455 129.45L112.718 122.355L113.931 121.545L118.668 128.64L117.455 129.45ZM115.228 130.937L114.577 129.962L120.225 126.192L120.876 127.166L115.228 130.937Z" fill="white"/>
<path d="M107.27 135.605L103.888 127.773L105.238 127.19L108.62 135.022L107.27 135.605Z" fill="white"/>
<path d="M96.9481 139.455L95.0312 131.142L96.4643 130.811L101.566 135.906L100.193 129.951L101.626 129.621L103.543 137.934L102.11 138.264L96.994 133.16L98.3698 139.127L96.9481 139.455Z" fill="white"/>
<path d="M84.1003 141.557L84.1661 133.026L85.6251 133.037L85.5592 141.568L84.1003 141.557ZM81.4226 141.536L81.4316 140.364L88.2225 140.417L88.2134 141.588L81.4226 141.536Z" fill="white"/>
<path d="M72.772 136.95L72.8581 136.489C72.9765 135.856 73.1652 135.303 73.4242 134.831C73.6833 134.358 73.9994 133.974 74.3726 133.679C74.7419 133.382 75.1573 133.179 75.6186 133.071C76.0793 132.966 76.5688 132.962 77.0872 133.059C77.6017 133.155 78.0549 133.335 78.4467 133.599C78.8339 133.866 79.15 134.205 79.3951 134.617C79.6401 135.028 79.8021 135.501 79.8809 136.037C79.9559 136.571 79.9343 137.155 79.8159 137.789L79.7299 138.25C79.6115 138.883 79.4212 139.434 79.1591 139.901C78.8962 140.373 78.5781 140.757 78.2049 141.052C77.8272 141.351 77.41 141.554 76.9531 141.659C76.4918 141.768 76.0038 141.774 75.4893 141.678C74.9709 141.581 74.5162 141.399 74.1251 141.131C73.7333 140.867 73.4172 140.528 73.1767 140.113C72.9355 139.703 72.7793 139.23 72.7081 138.697C72.6324 138.166 72.6537 137.584 72.772 136.95ZM74.3038 136.759L74.2156 137.232C74.1281 137.7 74.0971 138.121 74.1225 138.496C74.1434 138.873 74.2196 139.199 74.3511 139.474C74.478 139.752 74.6566 139.976 74.8871 140.147C75.1169 140.321 75.3911 140.438 75.7098 140.497C76.0285 140.557 76.3245 140.546 76.5978 140.466C76.8703 140.39 77.1178 140.245 77.3404 140.033C77.5584 139.823 77.7471 139.546 77.9067 139.203C78.0656 138.863 78.1887 138.459 78.2762 137.99L78.3645 137.518C78.452 137.049 78.4833 136.626 78.4586 136.248C78.4338 135.87 78.3565 135.539 78.2265 135.257C78.0919 134.977 77.9116 134.751 77.6857 134.578C77.4591 134.408 77.1864 134.294 76.8677 134.234C76.5451 134.174 76.2476 134.182 75.9751 134.258C75.7018 134.338 75.4558 134.485 75.2371 134.698C75.0177 134.916 74.8302 135.197 74.6744 135.541C74.5148 135.885 74.3913 136.291 74.3038 136.759Z" fill="white"/>
<path d="M63.5038 139.059L62.1266 138.56L64.0692 133.2C64.2901 132.59 64.6074 132.127 65.0209 131.812C65.4344 131.496 65.9067 131.317 66.438 131.272C66.9642 131.23 67.5065 131.311 68.0647 131.513C68.6413 131.722 69.1182 132.011 69.4953 132.38C69.8712 132.753 70.1149 133.193 70.2266 133.699C70.3346 134.203 70.2781 134.76 70.0572 135.37L68.1146 140.73L66.7374 140.231L68.68 134.871C68.8198 134.485 68.8688 134.143 68.8271 133.846C68.7841 133.552 68.6627 133.302 68.4629 133.097C68.2631 132.891 67.9979 132.729 67.6674 132.609C67.3369 132.489 67.0309 132.445 66.7496 132.476C66.4647 132.506 66.2115 132.619 65.9901 132.818C65.7674 133.019 65.5861 133.313 65.4464 133.699L63.5038 139.059Z" fill="white"/>
<path d="M57.0335 130.362L55.7535 129.649C56.0661 129.184 56.4448 128.825 56.8896 128.572C57.3325 128.322 57.8247 128.205 58.3661 128.22C58.9075 128.235 59.4786 128.41 60.0794 128.744C60.5402 129 60.9093 129.313 61.1868 129.682C61.4624 130.055 61.647 130.466 61.7408 130.916C61.8327 131.369 61.828 131.852 61.7267 132.363C61.622 132.873 61.4206 133.395 61.1224 133.931L60.7777 134.551C60.4794 135.087 60.1398 135.532 59.7586 135.888C59.374 136.242 58.9631 136.498 58.5259 136.657C58.0868 136.82 57.6357 136.879 57.1725 136.836C56.7058 136.791 56.2387 136.638 55.771 136.378C55.1771 136.048 54.7361 135.659 54.4481 135.213C54.16 134.766 54.0107 134.288 54.0001 133.777C53.986 133.264 54.092 132.744 54.3181 132.217L55.5981 132.929C55.4537 133.269 55.3759 133.586 55.3647 133.879C55.3501 134.17 55.4205 134.437 55.5759 134.68C55.7294 134.927 55.9853 135.149 56.3437 135.349C56.6373 135.512 56.9237 135.6 57.2029 135.612C57.4821 135.625 57.754 135.566 58.0186 135.436C58.2831 135.306 58.5393 135.107 58.7873 134.838C59.0299 134.571 59.2614 134.239 59.4817 133.843L59.8321 133.213C60.0411 132.838 60.1986 132.478 60.3047 132.135C60.4055 131.793 60.4484 131.475 60.4334 131.181C60.415 130.884 60.3315 130.617 60.183 130.378C60.0344 130.138 59.8099 129.935 59.5095 129.768C59.1443 129.565 58.8168 129.459 58.5269 129.449C58.2336 129.438 57.9672 129.511 57.7277 129.668C57.4829 129.827 57.2515 130.058 57.0335 130.362Z" fill="white"/>
<path d="M47.5682 127.262L48.3079 126.361L51.8091 129.234L51.0694 130.136L47.5682 127.262ZM48.5285 132.659L53.9407 126.064L55.0776 126.997L49.6654 133.592L48.5285 132.659ZM44.434 129.299L49.8462 122.704L50.9786 123.633L45.5663 130.228L44.434 129.299Z" fill="white"/>
<path d="M28.9358 102.765L31.9945 101.644C32.1865 101.702 32.4168 101.82 32.6853 101.996C32.9487 102.17 33.2172 102.431 33.4908 102.78C33.7644 103.129 34.0095 103.599 34.226 104.189C34.4102 104.692 34.4947 105.183 34.4793 105.663C34.4602 106.144 34.3414 106.597 34.123 107.023C33.9032 107.445 33.587 107.825 33.1744 108.163C32.7582 108.503 32.2456 108.785 31.6368 109.008L31.0812 109.212C30.4761 109.434 29.9094 109.556 29.3811 109.579C28.8479 109.6 28.3638 109.528 27.9288 109.363C27.4939 109.198 27.1181 108.945 26.8014 108.603C26.4798 108.259 26.2248 107.83 26.0366 107.317C25.7958 106.66 25.7068 106.077 25.7695 105.568C25.8272 105.055 26.0056 104.611 26.3046 104.236C26.6036 103.86 26.9893 103.55 27.4615 103.306L27.9577 104.659C27.6951 104.805 27.4774 104.983 27.3044 105.192C27.13 105.397 27.0236 105.64 26.9849 105.921C26.9413 106.199 26.9874 106.523 27.1232 106.894C27.2402 107.213 27.4036 107.471 27.6134 107.669C27.8232 107.866 28.075 108.003 28.3689 108.078C28.6614 108.15 28.9912 108.164 29.3582 108.121C29.7252 108.078 30.1251 107.977 30.5578 107.818L31.1245 107.611C31.5646 107.449 31.9383 107.26 32.2458 107.043C32.5519 106.823 32.79 106.582 32.9602 106.32C33.129 106.054 33.2269 105.77 33.2538 105.469C33.277 105.17 33.2294 104.858 33.1111 104.536C32.9954 104.22 32.875 103.971 32.7497 103.788C32.6207 103.607 32.498 103.471 32.3816 103.38C32.2602 103.287 32.1526 103.221 32.0587 103.18L30.4688 103.763L31.0801 105.43L30.0513 105.807L28.9358 102.765Z" fill="white"/>
<path d="M29.2866 93.4905L30.4276 93.2503L31.361 97.6823L30.22 97.9226L29.2866 93.4905ZM22.9271 99.0334L31.2753 97.2752L31.5783 98.7144L23.2302 100.473L22.9271 99.0334ZM25.6875 94.8533L26.8112 94.6166L27.6227 98.4696L26.4989 98.7063L25.6875 94.8533ZM22.0855 95.037L23.2322 94.7955L24.1596 99.199L23.0129 99.4405L22.0855 95.037Z" fill="white"/>
<path d="M20.8093 88.4022L29.3243 87.8759L29.4143 89.3321L20.8993 89.8584L20.8093 88.4022ZM20.6441 85.7295L21.8137 85.6573L22.2327 92.4353L21.063 92.5076L20.6441 85.7295Z" fill="white"/>
<path d="M20.5782 76.513L29.0525 77.4973L28.8828 78.9582L20.4085 77.9739L20.5782 76.513Z" fill="white"/>
<path d="M22.3705 65.6979L30.5334 68.1777L30.1059 69.5849L23.1462 71.4695L28.9937 73.2459L28.5662 74.6531L20.4033 72.1733L20.8308 70.7661L27.805 68.8737L21.9464 67.0939L22.3705 65.6979Z" fill="white"/>
<path d="M26.8777 53.6169L34.2389 57.929L33.5015 59.1879L26.1402 54.8758L26.8777 53.6169ZM28.2311 51.3064L29.2423 51.8987L25.8098 57.7584L24.7986 57.1661L28.2311 51.3064Z" fill="white"/>
<path d="M36.5651 46.02L36.9209 46.3252C37.41 46.7449 37.7941 47.185 38.0731 47.6457C38.3522 48.1064 38.5263 48.5723 38.5956 49.0435C38.6674 49.5117 38.6348 49.9727 38.4977 50.4264C38.3577 50.8776 38.116 51.3033 37.7726 51.7035C37.4318 52.1008 37.0491 52.4029 36.6245 52.6099C36.1994 52.8114 35.7475 52.9152 35.2687 52.9214C34.7899 52.9275 34.2991 52.8307 33.7963 52.6309C33.296 52.4282 32.8013 52.1169 32.3121 51.6973L31.9563 51.3921C31.4672 50.9724 31.0858 50.532 30.8123 50.0709C30.5358 49.6073 30.363 49.1399 30.2937 48.6687C30.224 48.192 30.2579 47.7296 30.3954 47.2813C30.5324 46.8276 30.7714 46.4021 31.1122 46.0049C31.4555 45.6046 31.841 45.3023 32.2686 45.0978C32.6933 44.8908 33.1452 44.787 33.6244 44.7864C34.1006 44.7832 34.5876 44.8845 35.0853 45.0902C35.5827 45.2904 36.0759 45.6003 36.5651 46.02ZM35.9632 47.4414L35.5986 47.1286C35.2369 46.8183 34.8877 46.5804 34.5509 46.415C34.2137 46.2441 33.8932 46.1468 33.5895 46.1229C33.2853 46.0935 33.0018 46.136 32.739 46.2503C32.4733 46.362 32.2349 46.5409 32.0238 46.787C31.8127 47.0331 31.6734 47.2944 31.6059 47.571C31.5355 47.8451 31.5366 48.1318 31.6094 48.4309C31.6817 48.7246 31.8267 49.0265 32.0443 49.3368C32.259 49.6445 32.5472 49.9535 32.9089 50.2638L33.2735 50.5766C33.6352 50.8869 33.9859 51.126 34.3257 51.294C34.6654 51.4619 34.9901 51.5603 35.2998 51.5893C35.6091 51.6127 35.8953 51.5701 36.1585 51.4613C36.4187 51.35 36.6543 51.1713 36.8654 50.9252C37.0791 50.6762 37.2211 50.4146 37.2916 50.1405C37.3591 49.8639 37.3552 49.5774 37.2799 49.2812C37.2017 48.9825 37.0524 48.6795 36.8323 48.3722C36.6146 48.062 36.3249 47.7517 35.9632 47.4414Z" fill="white"/>
<path d="M39.368 36.9303L40.4866 35.9846L44.1672 40.3386C44.5859 40.8338 44.829 41.3392 44.8967 41.8549C44.9643 42.3706 44.8851 42.8698 44.6589 43.3525C44.4332 43.8298 44.0936 44.2601 43.6402 44.6434C43.1718 45.0393 42.6836 45.3088 42.1754 45.452C41.6648 45.5921 41.1623 45.5846 40.6681 45.4296C40.1768 45.272 39.7218 44.9456 39.3032 44.4504L35.6226 40.0965L36.7413 39.1508L40.4219 43.5047C40.6867 43.8179 40.9585 44.0306 41.2374 44.1427C41.5138 44.2517 41.7907 44.2708 42.0683 44.1998C42.3459 44.1288 42.6189 43.9799 42.8874 43.7529C43.1559 43.5259 43.3468 43.2828 43.46 43.0234C43.5761 42.7615 43.6035 42.4852 43.5419 42.1945C43.4778 41.9009 43.3134 41.5975 43.0486 41.2842L39.368 36.9303Z" fill="white"/>
<path d="M50.182 35.602L51.4377 34.8477C51.6851 35.3507 51.8076 35.8581 51.8052 36.3699C51.8008 36.8783 51.657 37.3634 51.3739 37.8252C51.0908 38.2869 50.6545 38.6948 50.0652 39.0488C49.6131 39.3203 49.158 39.4844 48.6998 39.5409C48.2396 39.594 47.7911 39.5491 47.3542 39.4059C46.9154 39.2594 46.4995 39.0148 46.1068 38.672C45.7174 38.3272 45.3648 37.8919 45.049 37.3662L44.6839 36.7585C44.3681 36.2328 44.1511 35.716 44.0329 35.2083C43.9181 34.6985 43.9008 34.2145 43.9809 33.7563C44.0591 33.2947 44.2323 32.8739 44.5008 32.4939C44.7726 32.1119 45.1378 31.7831 45.5966 31.5075C46.1792 31.1575 46.7358 30.969 47.2664 30.9419C47.7969 30.9148 48.2864 31.0241 48.7347 31.2697C49.1863 31.5133 49.5841 31.8645 49.928 32.3232L48.6723 33.0775C48.4498 32.7829 48.2142 32.5576 47.9655 32.4016C47.7203 32.2437 47.4536 32.1714 47.1655 32.185C46.8755 32.1952 46.5546 32.3059 46.2031 32.5171C45.9151 32.6901 45.6961 32.8945 45.5462 33.1304C45.3962 33.3663 45.3116 33.6313 45.2924 33.9254C45.2731 34.2195 45.3181 34.541 45.4275 34.89C45.5382 35.2336 45.7103 35.5996 45.9436 35.9881L46.3147 36.6059C46.536 36.9742 46.769 37.29 47.0136 37.5531C47.2596 37.8109 47.5139 38.0067 47.7766 38.1406C48.0426 38.2724 48.3163 38.3336 48.5977 38.324C48.8791 38.3145 49.1671 38.2212 49.4617 38.0442C49.82 37.829 50.0755 37.5981 50.2281 37.3515C50.3841 37.1028 50.4536 36.8355 50.4367 36.5495C50.4211 36.2581 50.3362 35.9422 50.182 35.602Z" fill="white"/>
<path d="M57.4698 28.9803L57.8835 30.0705L53.6489 31.6775L53.2352 30.5874L57.4698 28.9803ZM52.3108 27.1278L55.3378 35.1039L53.9628 35.6258L50.9357 27.6496L52.3108 27.1278ZM57.263 25.2484L60.29 33.2245L58.9205 33.7443L55.8935 25.7681L57.263 25.2484Z" fill="white"/>
<circle cx="71.5" cy="25.5" r="1.5" fill="white"/>
<circle cx="133.5" cy="99.5" r="1.5" fill="white"/>
<circle cx="38.5" cy="117.5" r="1.5" fill="white"/>
</svg>
