<svg width="367" height="261" viewBox="0 0 367 261" fill="none" xmlns="http://www.w3.org/2000/svg">
<g clip-path="url(#clip0_1_2553)">
<mask id="mask0_1_2553" style="mask-type:luminance" maskUnits="userSpaceOnUse" x="-1" y="7" width="368" height="262">
<rect x="-0.540523" y="7.99976" width="367.22" height="260" transform="rotate(0.0158183 -0.540523 7.99976)" fill="white"/>
</mask>
<g mask="url(#mask0_1_2553)">
<g clip-path="url(#clip1_1_2553)">
<path d="M336.262 249.729C336.261 250.649 336.095 251.445 335.762 252.115C335.43 252.786 334.974 253.302 334.394 253.666C333.814 254.029 333.152 254.211 332.408 254.211C331.664 254.211 331.002 254.029 330.423 253.665C329.843 253.301 329.387 252.784 329.055 252.113C328.723 251.443 328.557 250.647 328.557 249.727C328.557 248.806 328.724 248.011 329.056 247.341C329.389 246.67 329.845 246.153 330.425 245.79C331.004 245.426 331.666 245.245 332.411 245.245C333.155 245.245 333.817 245.427 334.396 245.791C334.976 246.155 335.432 246.672 335.764 247.342C336.096 248.013 336.262 248.809 336.262 249.729ZM335.239 249.729C335.239 248.973 335.113 248.335 334.86 247.815C334.61 247.295 334.271 246.902 333.842 246.635C333.416 246.367 332.939 246.234 332.41 246.234C331.882 246.233 331.403 246.367 330.974 246.634C330.548 246.901 330.208 247.294 329.955 247.814C329.705 248.334 329.58 248.971 329.58 249.727C329.58 250.483 329.704 251.121 329.954 251.641C330.207 252.161 330.546 252.554 330.972 252.821C331.401 253.088 331.88 253.222 332.408 253.222C332.937 253.222 333.414 253.089 333.84 252.822C334.269 252.555 334.609 252.162 334.859 251.642C335.112 251.122 335.239 250.484 335.239 249.729ZM340.56 254.23C339.947 254.23 339.418 254.085 338.975 253.795C338.532 253.505 338.191 253.106 337.953 252.597C337.714 252.089 337.595 251.508 337.595 250.854C337.595 250.19 337.718 249.603 337.962 249.094C338.209 248.583 338.553 248.184 338.994 247.897C339.437 247.608 339.954 247.463 340.545 247.463C341.005 247.463 341.42 247.549 341.789 247.719C342.159 247.89 342.461 248.128 342.697 248.435C342.932 248.742 343.079 249.1 343.135 249.509L342.13 249.509C342.053 249.211 341.883 248.946 341.619 248.716C341.357 248.483 341.005 248.367 340.562 248.367C340.17 248.366 339.826 248.469 339.53 248.673C339.238 248.875 339.009 249.16 338.844 249.529C338.682 249.896 338.601 250.326 338.601 250.821C338.601 251.326 338.68 251.767 338.839 252.142C339.001 252.517 339.228 252.808 339.521 253.015C339.816 253.223 340.163 253.327 340.56 253.327C340.822 253.327 341.059 253.281 341.272 253.191C341.485 253.1 341.666 252.969 341.813 252.799C341.961 252.628 342.066 252.424 342.129 252.185L343.135 252.185C343.078 252.572 342.937 252.92 342.712 253.229C342.491 253.536 342.197 253.78 341.83 253.962C341.466 254.141 341.043 254.23 340.56 254.23ZM347.453 247.55L347.452 248.403L344.06 248.402L344.061 247.549L347.453 247.55ZM345.05 245.981L346.055 245.982L346.054 252.22C346.054 252.504 346.095 252.717 346.177 252.86C346.262 252.999 346.37 253.093 346.501 253.141C346.634 253.186 346.775 253.209 346.923 253.209C347.033 253.209 347.124 253.204 347.195 253.192C347.266 253.178 347.323 253.167 347.366 253.158L347.57 254.062C347.502 254.087 347.407 254.113 347.285 254.138C347.162 254.167 347.008 254.181 346.82 254.181C346.536 254.181 346.258 254.12 345.985 253.997C345.715 253.875 345.491 253.689 345.312 253.439C345.136 253.189 345.048 252.873 345.048 252.493L345.05 245.981Z" fill="#808D9E"/>
<path fill-rule="evenodd" clip-rule="evenodd" d="M337.336 237.093L337.387 54.093L338.607 54.0934L338.556 237.093L337.336 237.093Z" fill="#E9ECF2"/>
</g>
<g clip-path="url(#clip2_1_2553)">
<path d="M280.338 247.532C280.287 247.1 280.08 246.765 279.717 246.526C279.353 246.287 278.907 246.168 278.379 246.168C277.992 246.168 277.654 246.23 277.364 246.355C277.077 246.48 276.853 246.652 276.691 246.87C276.532 247.089 276.452 247.338 276.452 247.616C276.452 247.849 276.507 248.049 276.618 248.217C276.732 248.382 276.876 248.52 277.053 248.63C277.229 248.738 277.413 248.828 277.606 248.899C277.8 248.967 277.977 249.023 278.139 249.065L279.025 249.304C279.253 249.364 279.505 249.446 279.784 249.552C280.065 249.657 280.334 249.8 280.589 249.982C280.848 250.161 281.061 250.391 281.228 250.673C281.396 250.954 281.479 251.299 281.479 251.708C281.479 252.18 281.355 252.606 281.108 252.987C280.864 253.367 280.506 253.67 280.034 253.894C279.565 254.118 278.996 254.23 278.325 254.23C277.7 254.23 277.159 254.129 276.702 253.927C276.247 253.725 275.889 253.444 275.628 253.083C275.37 252.722 275.223 252.303 275.189 251.826L276.28 251.826C276.309 252.156 276.419 252.429 276.613 252.644C276.809 252.858 277.056 253.017 277.354 253.122C277.655 253.224 277.979 253.276 278.325 253.276C278.729 253.276 279.091 253.211 279.412 253.08C279.733 252.946 279.988 252.762 280.175 252.526C280.363 252.288 280.456 252.009 280.457 251.691C280.457 251.401 280.376 251.165 280.214 250.984C280.052 250.802 279.839 250.654 279.575 250.54C279.311 250.426 279.025 250.327 278.718 250.242L277.645 249.935C276.963 249.738 276.423 249.458 276.025 249.095C275.628 248.731 275.429 248.255 275.429 247.667C275.429 247.178 275.562 246.752 275.826 246.389C276.093 246.022 276.451 245.738 276.9 245.537C277.352 245.332 277.856 245.23 278.413 245.23C278.975 245.23 279.475 245.331 279.913 245.533C280.35 245.732 280.697 246.005 280.952 246.352C281.211 246.698 281.347 247.092 281.361 247.532L280.338 247.532ZM285.824 254.215C285.193 254.215 284.649 254.076 284.192 253.797C283.738 253.516 283.387 253.124 283.14 252.621C282.896 252.115 282.774 251.527 282.774 250.856C282.774 250.186 282.896 249.595 283.141 249.084C283.388 248.57 283.732 248.169 284.172 247.882C284.616 247.593 285.133 247.448 285.724 247.448C286.065 247.448 286.401 247.505 286.734 247.619C287.066 247.733 287.368 247.917 287.641 248.173C287.914 248.426 288.131 248.761 288.293 249.179C288.455 249.597 288.535 250.111 288.535 250.722L288.535 251.148L283.49 251.146L283.49 250.277L287.513 250.278C287.513 249.909 287.439 249.579 287.291 249.289C287.147 249 286.939 248.771 286.669 248.603C286.402 248.436 286.087 248.352 285.723 248.352C285.323 248.351 284.976 248.451 284.684 248.65C284.394 248.845 284.171 249.101 284.014 249.416C283.858 249.732 283.78 250.07 283.78 250.431L283.78 251.01C283.779 251.504 283.865 251.923 284.035 252.267C284.208 252.608 284.448 252.868 284.755 253.047C285.062 253.224 285.418 253.312 285.824 253.312C286.089 253.312 286.327 253.275 286.54 253.201C286.756 253.125 286.942 253.011 287.099 252.86C287.255 252.707 287.376 252.517 287.461 252.29L288.433 252.563C288.33 252.892 288.158 253.182 287.917 253.432C287.675 253.679 287.377 253.872 287.022 254.011C286.666 254.147 286.267 254.215 285.824 254.215ZM290.064 256.535L290.066 247.535L291.038 247.535L291.037 248.575L291.157 248.575C291.231 248.461 291.333 248.316 291.464 248.14C291.597 247.961 291.788 247.802 292.035 247.663C292.285 247.521 292.623 247.45 293.049 247.45C293.6 247.45 294.086 247.588 294.506 247.864C294.927 248.14 295.255 248.53 295.49 249.036C295.726 249.542 295.844 250.138 295.844 250.826C295.843 251.519 295.725 252.12 295.489 252.628C295.253 253.134 294.927 253.526 294.509 253.804C294.091 254.08 293.61 254.217 293.064 254.217C292.644 254.217 292.307 254.147 292.054 254.008C291.801 253.866 291.607 253.705 291.471 253.526C291.334 253.345 291.229 253.194 291.155 253.075L291.07 253.075L291.069 256.535L290.064 256.535ZM291.054 250.808C291.054 251.302 291.126 251.738 291.271 252.116C291.416 252.491 291.627 252.785 291.905 252.998C292.184 253.208 292.525 253.314 292.928 253.314C293.349 253.314 293.699 253.203 293.981 252.982C294.265 252.757 294.478 252.456 294.62 252.078C294.765 251.698 294.838 251.275 294.838 250.809C294.838 250.348 294.767 249.934 294.625 249.564C294.486 249.192 294.274 248.898 293.99 248.682C293.709 248.463 293.356 248.354 292.929 248.354C292.52 248.353 292.177 248.457 291.898 248.664C291.62 248.869 291.409 249.156 291.267 249.525C291.125 249.891 291.054 250.319 291.054 250.808Z" fill="#808D9E"/>
<path fill-rule="evenodd" clip-rule="evenodd" d="M284.876 237.079L284.927 54.0786L286.147 54.079L286.096 237.079L284.876 237.079Z" fill="#E9ECF2"/>
</g>
<g clip-path="url(#clip3_1_2553)">
<path d="M221.409 254.061L220.301 254.061L223.508 245.334L224.599 245.335L227.801 254.063L226.693 254.063L224.087 246.715L224.019 246.715L221.409 254.061ZM221.819 250.652L226.285 250.653L226.285 251.591L221.819 251.59L221.819 250.652ZM233.15 251.388L233.151 247.519L234.157 247.519L234.155 254.065L233.149 254.064L233.149 252.956L233.081 252.956C232.928 253.289 232.689 253.571 232.365 253.804C232.041 254.034 231.632 254.149 231.138 254.149C230.729 254.149 230.365 254.059 230.047 253.88C229.729 253.698 229.479 253.426 229.297 253.062C229.115 252.695 229.025 252.234 229.025 251.677L229.026 247.518L230.032 247.518L230.03 251.609C230.03 252.086 230.164 252.467 230.431 252.751C230.7 253.035 231.044 253.177 231.462 253.177C231.712 253.178 231.966 253.114 232.225 252.986C232.486 252.858 232.705 252.662 232.881 252.398C233.06 252.134 233.15 251.797 233.15 251.388ZM238.638 256.657C238.152 256.657 237.735 256.594 237.385 256.469C237.036 256.347 236.745 256.185 236.512 255.983C236.282 255.784 236.099 255.571 235.962 255.344L236.764 254.781C236.854 254.901 236.969 255.037 237.109 255.19C237.248 255.347 237.438 255.482 237.68 255.595C237.924 255.712 238.243 255.77 238.638 255.77C239.167 255.771 239.603 255.643 239.947 255.387C240.29 255.132 240.462 254.731 240.463 254.186L240.463 252.856L240.378 252.856C240.304 252.975 240.199 253.123 240.062 253.299C239.929 253.472 239.735 253.627 239.483 253.764C239.233 253.897 238.894 253.964 238.468 253.964C237.94 253.963 237.466 253.838 237.045 253.588C236.628 253.338 236.297 252.974 236.053 252.497C235.811 252.02 235.691 251.44 235.691 250.758C235.691 250.088 235.809 249.504 236.045 249.007C236.281 248.507 236.609 248.121 237.03 247.848C237.45 247.573 237.936 247.435 238.487 247.435C238.913 247.435 239.251 247.506 239.501 247.648C239.754 247.788 239.947 247.947 240.081 248.126C240.217 248.302 240.322 248.447 240.396 248.561L240.498 248.561L240.499 247.521L241.47 247.521L241.468 254.254C241.468 254.817 241.34 255.274 241.084 255.626C240.831 255.981 240.49 256.241 240.061 256.406C239.635 256.573 239.161 256.657 238.638 256.657ZM238.605 253.06C239.008 253.06 239.349 252.968 239.628 252.783C239.906 252.599 240.118 252.333 240.263 251.987C240.408 251.64 240.48 251.225 240.481 250.742C240.481 250.271 240.41 249.855 240.268 249.494C240.126 249.133 239.916 248.85 239.637 248.646C239.359 248.441 239.015 248.339 238.606 248.339C238.18 248.338 237.825 248.446 237.541 248.662C237.26 248.878 237.048 249.168 236.906 249.531C236.766 249.895 236.697 250.298 236.697 250.741C236.696 251.196 236.767 251.598 236.909 251.947C237.054 252.294 237.267 252.567 237.548 252.766C237.832 252.962 238.185 253.06 238.605 253.06Z" fill="#808D9E"/>
<path fill-rule="evenodd" clip-rule="evenodd" d="M229.976 237.063L230.027 54.0635L231.247 54.0638L231.196 237.064L229.976 237.063Z" fill="#E9ECF2"/>
</g>
<g clip-path="url(#clip4_1_2553)">
<path d="M174.964 245.321L176.02 245.321L176.019 251.56C176.019 252.117 175.916 252.59 175.711 252.979C175.507 253.368 175.218 253.664 174.846 253.865C174.474 254.067 174.035 254.167 173.529 254.167C173.052 254.167 172.627 254.08 172.255 253.907C171.883 253.731 171.591 253.481 171.378 253.157C171.165 252.833 171.058 252.448 171.058 252.002L172.098 252.002C172.098 252.249 172.159 252.465 172.281 252.65C172.406 252.832 172.577 252.974 172.792 253.076C173.008 253.179 173.254 253.23 173.53 253.23C173.834 253.23 174.092 253.166 174.305 253.038C174.518 252.911 174.68 252.723 174.791 252.476C174.905 252.226 174.962 251.921 174.962 251.56L174.964 245.321ZM182.125 251.374L182.126 247.505L183.132 247.505L183.13 254.051L182.125 254.05L182.125 252.942L182.057 252.942C181.903 253.275 181.664 253.557 181.34 253.79C181.017 254.02 180.607 254.135 180.113 254.135C179.704 254.135 179.34 254.045 179.022 253.866C178.704 253.684 178.454 253.412 178.273 253.048C178.091 252.681 178 252.22 178 251.663L178.001 247.504L179.007 247.504L179.006 251.595C179.006 252.072 179.139 252.453 179.406 252.737C179.676 253.021 180.02 253.163 180.437 253.164C180.687 253.164 180.942 253.1 181.2 252.972C181.461 252.844 181.68 252.648 181.857 252.384C182.036 252.12 182.125 251.783 182.125 251.374ZM185.98 245.324L185.978 254.051L184.972 254.051L184.975 245.324L185.98 245.324Z" fill="#808D9E"/>
<path fill-rule="evenodd" clip-rule="evenodd" d="M177.516 237.049L177.567 54.0491L180.007 54.0497L179.956 237.05L177.516 237.049Z" fill="#E9ECF2"/>
<path opacity="0.1" fill-rule="evenodd" clip-rule="evenodd" d="M155.556 237.043L155.607 54.043L204.407 54.0564L204.356 237.056L155.556 237.043Z" fill="url(#paint0_linear_1_2553)"/>
</g>
<g clip-path="url(#clip5_1_2553)">
<path d="M122.248 245.306L123.305 245.307L123.303 251.545C123.303 252.102 123.2 252.575 122.996 252.964C122.791 253.353 122.503 253.649 122.13 253.85C121.758 254.052 121.319 254.153 120.814 254.153C120.336 254.152 119.912 254.066 119.539 253.892C119.167 253.716 118.875 253.466 118.662 253.142C118.449 252.818 118.342 252.433 118.343 251.987L119.382 251.987C119.382 252.235 119.443 252.451 119.565 252.635C119.69 252.817 119.861 252.959 120.077 253.061C120.292 253.164 120.538 253.215 120.814 253.215C121.118 253.215 121.376 253.151 121.589 253.024C121.802 252.896 121.964 252.708 122.075 252.461C122.189 252.211 122.246 251.906 122.246 251.545L122.248 245.306ZM129.409 251.36L129.411 247.49L130.416 247.49L130.414 254.036L129.409 254.036L129.409 252.928L129.341 252.928C129.187 253.26 128.949 253.543 128.625 253.775C128.301 254.006 127.892 254.12 127.397 254.12C126.988 254.12 126.625 254.031 126.306 253.852C125.988 253.67 125.738 253.397 125.557 253.033C125.375 252.667 125.284 252.205 125.284 251.648L125.286 247.489L126.291 247.489L126.29 251.58C126.29 252.058 126.423 252.438 126.69 252.722C126.96 253.007 127.304 253.149 127.721 253.149C127.971 253.149 128.226 253.085 128.484 252.957C128.746 252.83 128.964 252.634 129.141 252.369C129.32 252.105 129.409 251.769 129.409 251.36ZM133.263 250.099L133.262 254.037L132.256 254.036L132.258 247.491L133.23 247.491L133.229 248.514L133.315 248.514C133.468 248.182 133.701 247.915 134.014 247.713C134.326 247.509 134.73 247.406 135.224 247.407C135.667 247.407 136.055 247.498 136.387 247.68C136.72 247.859 136.978 248.131 137.163 248.498C137.347 248.862 137.439 249.322 137.439 249.879L137.438 254.038L136.432 254.038L136.434 249.947C136.434 249.432 136.3 249.032 136.033 248.745C135.766 248.455 135.4 248.31 134.934 248.31C134.613 248.31 134.326 248.379 134.073 248.518C133.823 248.658 133.626 248.861 133.481 249.128C133.336 249.395 133.263 249.719 133.263 250.099Z" fill="#808D9E"/>
<path fill-rule="evenodd" clip-rule="evenodd" d="M129.936 237.036L129.987 54.0359L131.207 54.0362L131.156 237.036L129.936 237.036Z" fill="#E9ECF2"/>
</g>
<g clip-path="url(#clip6_1_2553)">
<path d="M61.7095 245.29L62.9709 245.29L65.9348 252.535L66.0371 252.535L69.005 245.292L70.2663 245.292L70.2639 254.019L69.2753 254.019L69.2771 247.388L69.1919 247.388L66.4628 254.018L65.5082 254.018L62.7828 247.387L62.6976 247.387L62.6957 254.017L61.7071 254.017L61.7095 245.29ZM74.1726 254.174C73.7578 254.174 73.3814 254.095 73.0434 253.939C72.7054 253.78 72.437 253.551 72.2382 253.253C72.0394 252.952 71.9401 252.588 71.9402 252.162C71.9403 251.787 72.0143 251.483 72.1621 251.25C72.3098 251.014 72.5073 250.83 72.7545 250.696C73.0017 250.563 73.2745 250.463 73.5728 250.398C73.874 250.33 74.1765 250.276 74.4805 250.236C74.8783 250.185 75.2007 250.147 75.4479 250.122C75.6979 250.093 75.8797 250.046 75.9934 249.981C76.1099 249.916 76.1681 249.802 76.1682 249.64L76.1682 249.606C76.1683 249.186 76.0533 248.859 75.8233 248.626C75.5961 248.393 75.2509 248.276 74.7879 248.276C74.3078 248.276 73.9313 248.381 73.6585 248.591C73.3857 248.801 73.1939 249.026 73.0831 249.264L72.1286 248.923C72.2992 248.526 72.5265 248.216 72.8107 247.994C73.0977 247.77 73.4102 247.614 73.7483 247.526C74.0892 247.435 74.4245 247.39 74.754 247.39C74.9643 247.39 75.2057 247.416 75.4784 247.467C75.754 247.515 76.0196 247.616 76.2752 247.77C76.5337 247.923 76.7481 248.155 76.9185 248.464C77.0889 248.774 77.174 249.189 77.1738 249.709L77.1727 254.021L76.167 254.021L76.1672 253.135L76.1161 253.135C76.0479 253.277 75.9342 253.429 75.775 253.59C75.6159 253.752 75.4042 253.89 75.14 254.004C74.8758 254.117 74.5533 254.174 74.1726 254.174ZM74.3263 253.27C74.724 253.271 75.0592 253.192 75.332 253.036C75.6076 252.88 75.8151 252.678 75.9543 252.431C76.0965 252.184 76.1676 251.924 76.1676 251.652L76.1679 250.731C76.1253 250.782 76.0315 250.829 75.8866 250.872C75.7445 250.911 75.5798 250.947 75.3922 250.978C75.2076 251.006 75.0272 251.032 74.851 251.055C74.6777 251.074 74.5371 251.091 74.4291 251.106C74.1678 251.14 73.9234 251.195 73.6961 251.272C73.4717 251.345 73.2898 251.458 73.1506 251.608C73.0142 251.756 72.946 251.958 72.9459 252.213C72.9458 252.563 73.075 252.827 73.3334 253.006C73.5948 253.182 73.9257 253.27 74.3263 253.27ZM79.4209 256.476C79.2505 256.476 79.0985 256.462 78.965 256.434C78.8314 256.408 78.7391 256.382 78.688 256.357L78.9439 255.471C79.1882 255.533 79.4041 255.556 79.5916 255.539C79.7791 255.522 79.9453 255.438 80.0903 255.288C80.238 255.14 80.3731 254.9 80.4953 254.568L80.6829 254.056L78.2643 247.476L79.3552 247.476L81.1606 252.693L81.2288 252.693L83.037 247.477L84.1279 247.478L81.3475 254.977C81.2224 255.315 81.0675 255.595 80.8827 255.816C80.698 256.041 80.4835 256.207 80.2391 256.315C79.9976 256.423 79.7249 256.476 79.4209 256.476Z" fill="#808D9E"/>
<path fill-rule="evenodd" clip-rule="evenodd" d="M73.8303 237.02L73.8808 54.0203L75.0731 54.0206L75.0226 237.021L73.8303 237.02Z" fill="#E9ECF2"/>
</g>
<g clip-path="url(#clip7_1_2553)">
<path d="M12.4436 233.484L9.61728 241.258L8.46298 241.258L11.7173 232.728L12.4614 232.728L12.4436 233.484ZM14.8087 241.26L11.9808 233.483L11.9634 232.728L12.7075 232.728L15.9688 241.26L14.8087 241.26ZM14.6631 238.101L14.6628 239.027L9.86985 239.026L9.8701 238.1L14.6631 238.101ZM18.1185 236.139L18.1164 243.698L17.0265 243.698L17.029 234.92L18.0251 234.921L18.1185 236.139ZM22.3894 238.039L22.3894 238.162C22.3893 238.623 22.3345 239.051 22.225 239.445C22.1155 239.836 21.9552 240.176 21.7442 240.465C21.5371 240.754 21.2812 240.978 20.9765 241.138C20.6717 241.298 20.3221 241.378 19.9276 241.378C19.5252 241.378 19.1698 241.312 18.8612 241.179C18.5527 241.046 18.291 240.852 18.0762 240.598C17.8614 240.344 17.6897 240.04 17.5608 239.684C17.4359 239.329 17.3501 238.928 17.3034 238.483L17.3035 237.827C17.3506 237.358 17.4386 236.938 17.5676 236.567C17.6966 236.196 17.8666 235.88 18.0776 235.618C18.2925 235.352 18.5523 235.151 18.8571 235.015C19.1618 234.874 19.5134 234.804 19.9118 234.804C20.3102 234.804 20.6637 234.882 20.9723 235.039C21.2808 235.191 21.5405 235.41 21.7514 235.695C21.9623 235.98 22.1204 236.322 22.2257 236.721C22.335 237.115 22.3896 237.555 22.3894 238.039ZM21.2995 238.162L21.2996 238.039C21.2997 237.722 21.2666 237.426 21.2002 237.148C21.1339 236.867 21.0304 236.621 20.8899 236.41C20.7532 236.195 20.5775 236.027 20.3627 235.906C20.1479 235.781 19.892 235.718 19.5951 235.718C19.3217 235.718 19.0834 235.765 18.8803 235.858C18.681 235.952 18.5111 236.079 18.3704 236.239C18.2297 236.395 18.1144 236.575 18.0245 236.778C17.9385 236.977 17.874 237.184 17.831 237.399L17.8306 238.917C17.9086 239.19 18.0179 239.448 18.1585 239.69C18.2991 239.929 18.4865 240.122 18.7208 240.271C18.9552 240.415 19.2501 240.487 19.6055 240.488C19.8985 240.488 20.1505 240.427 20.3615 240.306C20.5763 240.181 20.7522 240.011 20.8889 239.797C21.0296 239.582 21.1332 239.336 21.1997 239.058C21.2662 238.777 21.2995 238.478 21.2995 238.162ZM24.9425 235.919L24.941 241.262L23.8571 241.262L23.8588 234.922L24.9135 234.923L24.9425 235.919ZM26.9233 234.888L26.9171 235.896C26.8273 235.876 26.7414 235.865 26.6593 235.861C26.5812 235.853 26.4914 235.849 26.3898 235.849C26.1398 235.849 25.9191 235.888 25.7277 235.966C25.5362 236.044 25.3741 236.153 25.2412 236.294C25.1084 236.434 25.0029 236.602 24.9247 236.798C24.8504 236.989 24.8015 237.2 24.778 237.43L24.4733 237.606C24.4734 237.223 24.5106 236.864 24.5849 236.528C24.6632 236.192 24.7824 235.895 24.9426 235.637C25.1028 235.376 25.306 235.173 25.5521 235.028C25.8022 234.88 26.0991 234.806 26.4428 234.806C26.521 234.806 26.6108 234.816 26.7124 234.835C26.8139 234.851 26.8842 234.868 26.9233 234.888Z" fill="#92929D"/>
<path fill-rule="evenodd" clip-rule="evenodd" d="M18.9301 237.005L18.9807 54.0051L20.1729 54.0055L20.1224 237.005L18.9301 237.005Z" fill="#F1F1F5"/>
</g>
<g filter="url(#filter0_d_1_2553)">
<path d="M187.554 62.0518C187.556 55.4243 192.93 50.0532 199.558 50.0551L247.558 50.0683C254.185 50.0702 259.556 55.4442 259.554 62.0716L259.55 76.0716C259.549 82.6991 254.175 88.0702 247.547 88.0683L187.547 88.0518L187.554 62.0518Z" fill="white"/>
</g>
<path d="M222.075 74.2005C221.336 74.2003 220.68 74.0758 220.106 73.8271C219.536 73.5784 219.089 73.2385 218.764 72.8076C218.443 72.3733 218.284 71.881 218.287 71.3309C218.284 70.9033 218.377 70.5106 218.566 70.1527C218.755 69.7948 219.011 69.4965 219.332 69.258C219.657 69.0161 220.018 68.8621 220.416 68.7959L220.416 68.7263C219.892 68.6102 219.468 68.3433 219.144 67.9256C218.822 67.5045 218.663 67.0189 218.667 66.4687C218.664 65.9451 218.809 65.4778 219.105 65.0669C219.4 64.656 219.804 64.3329 220.318 64.0978C220.832 63.8593 221.418 63.7401 222.078 63.7403C222.731 63.7405 223.313 63.8599 223.823 64.0987C224.337 64.3342 224.741 64.6574 225.036 65.0685C225.334 65.4796 225.483 65.947 225.483 66.4706C225.483 67.0208 225.318 67.5063 224.99 67.9272C224.665 68.3447 224.246 68.6114 223.732 68.7272L223.732 68.7968C224.13 68.8632 224.488 69.0175 224.806 69.2595C225.127 69.4982 225.382 69.7966 225.571 70.1546C225.763 70.5126 225.859 70.9054 225.859 71.3329C225.859 71.8831 225.697 72.3753 225.372 72.8094C225.047 73.2402 224.599 73.5798 224.029 73.8282C223.462 74.0766 222.811 74.2007 222.075 74.2005ZM222.075 72.7786C222.457 72.7787 222.788 72.7142 223.07 72.585C223.352 72.4525 223.57 72.267 223.726 72.0284C223.882 71.7898 223.962 71.5147 223.965 71.2032C223.962 70.8784 223.877 70.5916 223.712 70.343C223.549 70.0911 223.326 69.8938 223.041 69.7512C222.759 69.6086 222.438 69.5373 222.076 69.5372C221.712 69.5371 221.387 69.6082 221.102 69.7507C220.817 69.8931 220.591 70.0903 220.426 70.3421C220.263 70.5906 220.183 70.8773 220.187 71.2021C220.183 71.5137 220.259 71.7888 220.415 72.0275C220.571 72.2628 220.79 72.4468 221.071 72.5795C221.356 72.7121 221.691 72.7785 222.075 72.7786ZM222.077 68.1401C222.388 68.1402 222.663 68.0773 222.902 67.9514C223.144 67.8256 223.335 67.65 223.474 67.4246C223.613 67.1993 223.685 66.9391 223.688 66.6441C223.685 66.3525 223.615 66.0972 223.479 65.8785C223.344 65.6564 223.155 65.4856 222.913 65.3662C222.671 65.2435 222.392 65.1821 222.078 65.182C221.756 65.182 221.473 65.2432 221.227 65.3658C220.985 65.485 220.796 65.6557 220.66 65.8777C220.528 66.0964 220.463 66.3516 220.466 66.6432C220.463 66.9382 220.529 67.1984 220.665 67.4238C220.804 67.6459 220.995 67.8217 221.237 67.951C221.482 68.077 221.762 68.1401 222.077 68.1401ZM227.493 74.0628L227.493 72.7304L231.029 69.2662C231.367 68.9249 231.649 68.6217 231.874 68.3566C232.1 68.0915 232.269 67.8347 232.382 67.5862C232.495 67.3376 232.551 67.0725 232.551 66.7908C232.551 66.4693 232.478 66.1941 232.332 65.9654C232.187 65.7334 231.986 65.5543 231.731 65.4283C231.476 65.3023 231.186 65.2392 230.861 65.2392C230.526 65.2391 230.233 65.3086 229.981 65.4477C229.729 65.5835 229.534 65.7774 229.394 66.0292C229.258 66.2811 229.19 66.581 229.19 66.929L227.435 66.9286C227.435 66.2822 227.583 65.7205 227.878 65.2433C228.173 64.7661 228.579 64.3967 229.096 64.135C229.617 63.8733 230.214 63.7425 230.886 63.7427C231.569 63.7429 232.169 63.8707 232.686 64.126C233.203 64.3814 233.604 64.7312 233.889 65.1754C234.177 65.6196 234.321 66.1267 234.321 66.6968C234.321 67.0779 234.248 67.4525 234.102 67.8203C233.956 68.1882 233.699 68.5958 233.331 69.0431C232.966 69.4904 232.454 70.0322 231.794 70.6684L230.039 72.4527L230.039 72.5223L234.473 72.5235L234.473 74.0647L227.493 74.0628ZM239.952 74.2601C239.133 74.2599 238.43 74.0526 237.844 73.6381C237.261 73.2203 236.812 72.6186 236.497 71.833C236.186 71.0441 236.03 70.0945 236.031 68.9842C236.034 67.8739 236.192 66.9293 236.504 66.1505C236.819 65.3684 237.268 64.7719 237.851 64.3611C238.438 63.9503 239.139 63.745 239.955 63.7452C240.77 63.7454 241.471 63.9511 242.057 64.3623C242.644 64.7734 243.093 65.3701 243.404 66.1524C243.719 66.9347 243.876 67.8794 243.876 68.9864C243.875 70.1 243.718 71.0512 243.403 71.8399C243.091 72.6253 242.642 73.2251 242.055 73.6393C241.471 74.0534 240.77 74.2604 239.952 74.2601ZM239.952 72.704C240.588 72.7042 241.091 72.3911 241.459 71.7648C241.83 71.1352 242.016 70.2089 242.016 68.9858C242.017 68.1771 241.932 67.4977 241.763 66.9474C241.594 66.3972 241.356 65.9828 241.048 65.7043C240.74 65.4225 240.375 65.2816 239.954 65.2814C239.321 65.2813 238.821 65.596 238.452 66.2256C238.084 66.8519 237.899 67.7716 237.895 68.9847C237.891 69.7967 237.972 70.4795 238.138 71.0331C238.307 71.5866 238.545 72.0043 238.853 72.2861C239.162 72.5646 239.528 72.7039 239.952 72.704Z" fill="#1D1E25"/>
<rect x="198.554" y="64.1973" width="10" height="10" rx="2" transform="rotate(0.0158183 198.554 64.1973)" fill="#2280FF"/>
<path d="M-9.46917 147.884C-4.97088 149.732 5.66415 154.881 12.2179 160.698C20.4102 167.97 46.9188 175.939 62.83 158.635C78.7413 141.331 85.9732 135.102 97.5416 135.105C109.11 135.109 116.823 132.688 129.842 114.691C142.862 96.6937 147.109 87.9982 163.109 88.0451C178.576 88.0905 186.403 98.7827 190.097 104.668L198.769 118.171C202.302 123.826 211.804 133.405 225.718 134.429C239.632 135.452 250.332 130.28 261.43 121.65C271.766 113.614 289.874 105.042 305.293 121.662C317.629 134.959 323.926 139.668 325.533 140.361" stroke="#2280FF" stroke-width="3" stroke-linecap="round"/>
<path d="M-33.471 154.612C-28.2608 155.958 -15.9426 159.71 -8.3513 163.948C1.13789 169.246 31.8413 175.054 50.2678 162.452C68.6943 149.849 77.0697 145.313 90.4682 145.317C103.867 145.32 112.8 143.558 127.877 130.451C142.954 117.343 147.872 111.01 166.403 111.046C184.318 111.081 193.384 118.87 197.663 123.158L207.709 132.994C211.802 137.114 222.808 144.092 238.924 144.839C255.039 145.586 267.43 141.82 280.284 135.536C292.254 129.683 313.225 123.442 331.087 135.55C345.376 145.236 352.67 148.667 354.53 149.172" stroke="#FF5555" stroke-width="3" stroke-linecap="round"/>
</g>
<rect x="-0.551998" y="49.9998" width="59.78" height="203" transform="rotate(0.0158183 -0.551998 49.9998)" fill="white"/>
<path d="M15.0072 59.2768L15.0048 68.004L13.948 68.0037L13.9501 60.3844L13.8989 60.3844L11.7679 61.7986L11.7681 60.7247L13.9504 59.2765L15.0072 59.2768ZM18.5556 65.6186L18.5389 64.3743L18.7435 64.3744L21.6079 61.4604L22.8522 61.4607L19.8003 64.5451L19.715 64.5451L18.5556 65.6186ZM17.6175 68.0047L17.6199 59.2775L18.6256 59.2778L18.6232 68.005L17.6175 68.0047ZM21.7766 68.0059L19.2206 64.7666L19.9367 64.0679L23.055 68.0062L21.7766 68.0059Z" fill="#808D9E"/>
<path d="M22.0563 238.125C21.4143 238.125 20.8675 237.95 20.4159 237.601C19.9643 237.248 19.6192 236.738 19.3808 236.071C19.1423 235.4 19.0232 234.591 19.0235 233.642C19.0238 232.699 19.1433 231.893 19.3821 231.226C19.6238 230.555 19.9705 230.044 20.4223 229.692C20.877 229.337 21.4225 229.159 22.0588 229.16C22.6952 229.16 23.2392 229.337 23.6908 229.693C24.1452 230.045 24.4917 230.557 24.7301 231.227C24.9714 231.895 25.0919 232.7 25.0917 233.643C25.0914 234.592 24.9719 235.402 24.733 236.072C24.4942 236.74 24.1489 237.25 23.6971 237.602C23.2453 237.951 22.6984 238.126 22.0563 238.125ZM22.0566 237.188C22.693 237.188 23.1874 236.881 23.5398 236.268C23.8923 235.654 24.0686 234.779 24.0689 233.643C24.0692 232.887 23.9884 232.244 23.8266 231.713C23.6676 231.181 23.4376 230.776 23.1366 230.498C22.8384 230.219 22.479 230.08 22.0586 230.08C21.4279 230.08 20.9349 230.391 20.5796 231.013C20.2243 231.632 20.0465 232.508 20.0462 233.642C20.046 234.398 20.1254 235.04 20.2843 235.568C20.4433 236.097 20.6719 236.499 20.9701 236.774C21.2711 237.05 21.6333 237.188 22.0566 237.188Z" fill="#808D9E"/>
<g clip-path="url(#clip8_1_2553)">
<path d="M2.13899 204L2.1392 203.233L5.02075 200.081C5.35892 199.712 5.63742 199.391 5.85624 199.118C6.07507 198.842 6.23707 198.584 6.34225 198.343C6.45027 198.098 6.50432 197.843 6.5044 197.576C6.50448 197.269 6.43069 197.003 6.28303 196.779C6.1382 196.554 5.93939 196.381 5.68658 196.259C5.43377 196.136 5.1497 196.075 4.83436 196.075C4.49913 196.075 4.2065 196.145 3.95646 196.284C3.70926 196.42 3.51745 196.612 3.38101 196.859C3.24742 197.106 3.18058 197.396 3.18049 197.728L2.17481 197.728C2.17495 197.216 2.29297 196.768 2.52887 196.381C2.76478 195.995 3.08588 195.694 3.49219 195.478C3.90134 195.262 4.36018 195.155 4.8687 195.155C5.38006 195.155 5.83316 195.263 6.22799 195.479C6.62281 195.695 6.93239 195.986 7.15672 196.353C7.38105 196.719 7.49316 197.127 7.49303 197.576C7.49294 197.897 7.43462 198.211 7.31806 198.518C7.20434 198.821 7.00538 199.161 6.72118 199.536C6.43983 199.908 6.04908 200.362 5.54893 200.899L3.58813 202.995L3.58811 203.063L7.64493 203.065L7.64467 204.002L2.13899 204ZM12.3369 204.123C11.6948 204.122 11.148 203.948 10.6964 203.598C10.2448 203.246 9.89977 202.736 9.66131 202.068C9.42286 201.397 9.30377 200.588 9.30403 199.639C9.30429 198.696 9.42383 197.89 9.66265 197.223C9.90431 196.552 10.251 196.041 10.7028 195.689C11.1575 195.334 11.703 195.157 12.3394 195.157C12.9757 195.157 13.5197 195.335 13.9713 195.69C14.4258 196.042 14.7722 196.554 15.0107 197.224C15.252 197.892 15.3725 198.697 15.3722 199.641C15.3719 200.589 15.2524 201.399 15.0136 202.069C14.7748 202.737 14.4295 203.247 13.9777 203.599C13.5259 203.948 12.9789 204.123 12.3369 204.123ZM12.3371 203.185C12.9735 203.185 13.4679 202.879 13.8204 202.265C14.1728 201.652 14.3492 200.777 14.3495 199.64C14.3497 198.885 14.2689 198.241 14.1071 197.71C13.9482 197.178 13.7182 196.774 13.4171 196.495C13.1189 196.217 12.7596 196.077 12.3391 196.077C11.7084 196.077 11.2154 196.388 10.8602 197.01C10.5049 197.629 10.3271 198.506 10.3268 199.639C10.3265 200.395 10.4059 201.037 10.5649 201.565C10.7238 202.094 10.9524 202.496 11.2506 202.771C11.5517 203.047 11.9138 203.185 12.3371 203.185ZM19.9226 204.125C19.2806 204.125 18.7337 203.95 18.2821 203.6C17.8305 203.248 17.4855 202.738 17.247 202.07C17.0086 201.399 16.8895 200.59 16.8897 199.641C16.89 198.698 17.0095 197.892 17.2484 197.225C17.49 196.554 17.8368 196.043 18.2886 195.691C18.7432 195.336 19.2887 195.159 19.9251 195.159C20.5614 195.159 21.1054 195.337 21.557 195.692C22.0115 196.044 22.3579 196.556 22.5964 197.226C22.8377 197.894 22.9582 198.699 22.9579 199.643C22.9577 200.591 22.8381 201.401 22.5993 202.071C22.3605 202.739 22.0152 203.249 21.5634 203.601C21.1116 203.95 20.5646 204.125 19.9226 204.125ZM19.9229 203.187C20.5592 203.187 21.0536 202.881 21.4061 202.267C21.7585 201.654 21.9349 200.779 21.9352 199.642C21.9354 198.887 21.8546 198.243 21.6928 197.712C21.5339 197.181 21.3039 196.776 21.0028 196.497C20.7046 196.219 20.3453 196.079 19.9248 196.079C19.2941 196.079 18.8012 196.39 18.4459 197.012C18.0906 197.631 17.9128 198.508 17.9125 199.641C17.9123 200.397 17.9916 201.039 18.1506 201.567C18.3095 202.096 18.5381 202.498 18.8363 202.774C19.1374 203.049 19.4996 203.187 19.9229 203.187Z" fill="#808D9E"/>
</g>
<g clip-path="url(#clip9_1_2553)">
<path d="M1.94446 168.211L1.9447 167.341L5.7816 161.274L6.41228 161.274L6.41191 162.621L5.98577 162.621L3.08678 167.205L3.08676 167.273L8.25153 167.275L8.25127 168.212L1.94446 168.211ZM6.05192 170.002L6.05248 167.948L6.0526 167.543L6.05433 161.274L7.06001 161.275L7.0576 170.002L6.05192 170.002ZM12.78 170.123C12.138 170.123 11.5911 169.948 11.1395 169.598C10.6879 169.246 10.3429 168.736 10.1044 168.068C9.86598 167.398 9.74688 166.588 9.74714 165.639C9.74741 164.696 9.86695 163.89 10.1058 163.223C10.3474 162.552 10.6942 162.041 11.146 161.689C11.6006 161.334 12.1461 161.157 12.7825 161.157C13.4188 161.157 13.9628 161.335 14.4144 161.69C14.8689 162.042 15.2153 162.554 15.4538 163.224C15.6951 163.892 15.8156 164.697 15.8153 165.641C15.8151 166.589 15.6955 167.399 15.4567 168.07C15.2179 168.737 14.8726 169.247 14.4208 169.599C13.969 169.948 13.422 170.123 12.78 170.123ZM12.7803 169.185C13.4166 169.185 13.911 168.879 14.2635 168.265C14.6159 167.652 14.7923 166.777 14.7926 165.64C14.7928 164.885 14.712 164.241 14.5502 163.71C14.3913 163.179 14.1613 162.774 13.8602 162.495C13.562 162.217 13.2027 162.077 12.7822 162.077C12.1515 162.077 11.6586 162.388 11.3033 163.01C10.948 163.629 10.7702 164.506 10.7699 165.639C10.7697 166.395 10.849 167.037 11.008 167.565C11.1669 168.094 11.3955 168.496 11.6937 168.772C11.9948 169.047 12.357 169.185 12.7803 169.185ZM20.3657 170.125C19.7237 170.125 19.1768 169.95 18.7252 169.6C18.2736 169.248 17.9286 168.738 17.6901 168.07C17.4517 167.4 17.3326 166.59 17.3329 165.641C17.3331 164.698 17.4527 163.893 17.6915 163.225C17.9331 162.555 18.2799 162.043 18.7317 161.691C19.1863 161.336 19.7318 161.159 20.3682 161.159C21.0046 161.159 21.5485 161.337 22.0001 161.692C22.4546 162.044 22.801 162.556 23.0395 163.226C23.2808 163.894 23.4013 164.7 23.401 165.643C23.4008 166.592 23.2812 167.401 23.0424 168.072C22.8036 168.739 22.4583 169.249 22.0065 169.601C21.5547 169.95 21.0078 170.125 20.3657 170.125ZM20.366 169.187C21.0023 169.188 21.4967 168.881 21.8492 168.267C22.2016 167.654 22.378 166.779 22.3783 165.642C22.3785 164.887 22.2977 164.243 22.1359 163.712C21.977 163.181 21.747 162.776 21.4459 162.497C21.1477 162.219 20.7884 162.08 20.3679 162.079C19.7373 162.079 19.2443 162.39 18.889 163.012C18.5337 163.631 18.3559 164.508 18.3556 165.641C18.3554 166.397 18.4347 167.039 18.5937 167.568C18.7526 168.096 18.9812 168.498 19.2794 168.774C19.5805 169.049 19.9427 169.187 20.366 169.187Z" fill="#808D9E"/>
</g>
<g clip-path="url(#clip10_1_2553)">
<path d="M5.05548 136.121C4.69753 136.115 4.33959 136.047 3.98167 135.916C3.62375 135.785 3.29711 135.565 3.00174 135.255C2.70637 134.942 2.46927 134.52 2.29044 133.989C2.11161 133.455 2.02231 132.785 2.02253 131.978C2.02274 131.205 2.09538 130.52 2.24043 129.924C2.38548 129.324 2.59585 128.82 2.87153 128.411C3.14721 127.999 3.47968 127.687 3.86895 127.474C4.26105 127.261 4.70284 127.155 5.19432 127.155C5.68295 127.155 6.11759 127.253 6.49821 127.449C6.88168 127.642 7.19411 127.912 7.43549 128.259C7.67687 128.606 7.83301 129.005 7.90391 129.457L6.86414 129.456C6.76765 129.064 6.58024 128.739 6.30191 128.48C6.02357 128.222 5.65429 128.092 5.19406 128.092C4.51792 128.092 3.98517 128.386 3.5958 128.974C3.20928 129.562 3.01445 130.387 3.01131 131.45L3.0795 131.45C3.23865 131.208 3.42763 131.002 3.64643 130.832C3.86807 130.659 4.11242 130.525 4.37949 130.432C4.64656 130.338 4.92925 130.291 5.22754 130.291C5.72754 130.291 6.18489 130.416 6.5996 130.666C7.0143 130.914 7.34659 131.256 7.59647 131.694C7.84635 132.128 7.97122 132.627 7.97106 133.19C7.97091 133.729 7.85004 134.224 7.60844 134.672C7.36684 135.118 7.02725 135.473 6.58968 135.738C6.15494 135.999 5.64355 136.126 5.05548 136.121ZM5.05574 135.183C5.41369 135.183 5.73474 135.094 6.01888 134.915C6.30586 134.736 6.53178 134.496 6.69664 134.195C6.86433 133.894 6.94823 133.559 6.94833 133.189C6.94843 132.829 6.86756 132.5 6.70571 132.205C6.5467 131.907 6.32659 131.669 6.04539 131.493C5.76703 131.317 5.44887 131.229 5.09092 131.229C4.82103 131.229 4.5696 131.282 4.33661 131.39C4.10363 131.495 3.89905 131.64 3.72286 131.825C3.54951 132.009 3.41309 132.221 3.31359 132.46C3.21409 132.695 3.16431 132.944 3.16424 133.205C3.16414 133.552 3.24502 133.876 3.40687 134.177C3.57156 134.478 3.79592 134.721 4.07996 134.906C4.36684 135.091 4.6921 135.183 5.05574 135.183ZM12.5783 136.123C11.9363 136.123 11.3895 135.948 10.9379 135.598C10.4863 135.246 10.1412 134.736 9.90277 134.068C9.66432 133.397 9.54522 132.588 9.54548 131.639C9.54574 130.696 9.66529 129.89 9.90411 129.223C10.1458 128.552 10.4925 128.041 10.9443 127.689C11.3989 127.334 11.9444 127.157 12.5808 127.157C13.2172 127.157 13.7612 127.335 14.2128 127.69C14.6672 128.042 15.0137 128.554 15.2521 129.224C15.4934 129.892 15.6139 130.697 15.6137 131.641C15.6134 132.589 15.4939 133.399 15.255 134.069C15.0162 134.737 14.6709 135.247 14.2191 135.599C13.7673 135.948 13.2204 136.123 12.5783 136.123ZM12.5786 135.185C13.215 135.185 13.7094 134.879 14.0618 134.265C14.4142 133.652 14.5906 132.777 14.5909 131.64C14.5911 130.885 14.5104 130.241 14.3486 129.71C14.1896 129.179 13.9596 128.774 13.6586 128.495C13.3604 128.217 13.001 128.077 12.5806 128.077C11.9499 128.077 11.4569 128.388 11.1016 129.01C10.7463 129.629 10.5685 130.506 10.5682 131.639C10.568 132.395 10.6474 133.037 10.8063 133.565C10.9653 134.094 11.1938 134.496 11.4921 134.772C11.7931 135.047 12.1553 135.185 12.5786 135.185ZM20.1641 136.125C19.522 136.125 18.9752 135.95 18.5236 135.6C18.072 135.248 17.7269 134.738 17.4885 134.07C17.25 133.4 17.1309 132.59 17.1312 131.641C17.1315 130.698 17.251 129.892 17.4898 129.225C17.7315 128.555 18.0782 128.043 18.53 127.691C18.9847 127.336 19.5302 127.159 20.1665 127.159C20.8029 127.159 21.3469 127.337 21.7985 127.692C22.2529 128.044 22.5994 128.556 22.8378 129.226C23.0791 129.894 23.1996 130.699 23.1994 131.643C23.1991 132.592 23.0796 133.401 22.8408 134.072C22.6019 134.739 22.2566 135.249 21.8048 135.601C21.353 135.95 20.8061 136.125 20.1641 136.125ZM20.1643 135.187C20.8007 135.187 21.2951 134.881 21.6475 134.267C22 133.654 22.1763 132.779 22.1767 131.642C22.1769 130.887 22.0961 130.243 21.9343 129.712C21.7753 129.181 21.5453 128.776 21.2443 128.497C20.9461 128.219 20.5867 128.079 20.1663 128.079C19.5356 128.079 19.0426 128.39 18.6873 129.012C18.332 129.631 18.1542 130.508 18.1539 131.641C18.1537 132.397 18.2331 133.039 18.392 133.567C18.551 134.096 18.7796 134.498 19.0778 134.774C19.3788 135.049 19.741 135.187 20.1643 135.187Z" fill="#808D9E"/>
</g>
<g clip-path="url(#clip11_1_2553)">
<path d="M4.96273 102.121C4.3775 102.12 3.86048 102.017 3.41168 101.809C2.96571 101.599 2.61778 101.31 2.36788 100.944C2.11798 100.574 1.99452 100.154 1.99749 99.6823C1.99475 99.3129 2.06729 98.9721 2.2151 98.6596C2.36292 98.3443 2.56469 98.0816 2.82043 97.8714C3.07902 97.6584 3.36741 97.5236 3.6856 97.4668L3.68562 97.4157C3.26803 97.3076 2.93571 97.0731 2.68865 96.7123C2.44159 96.3486 2.31955 95.9352 2.32252 95.4721C2.3198 95.0289 2.43212 94.6327 2.65949 94.2833C2.88686 93.9339 3.19944 93.6584 3.59722 93.4569C3.99785 93.2553 4.45384 93.1545 4.9652 93.1547C5.47088 93.1548 5.92256 93.2558 6.32023 93.4576C6.7179 93.6594 7.03033 93.9351 7.2575 94.2846C7.48752 94.6341 7.60389 95.0304 7.60661 95.4736C7.60364 95.9367 7.47711 96.35 7.227 96.7135C6.97975 97.0743 6.65156 97.3085 6.24244 97.4164L6.24242 97.4675C6.55775 97.5244 6.8418 97.6595 7.09458 97.8726C7.34737 98.0829 7.549 98.3457 7.69948 98.6611C7.84996 98.9737 7.92657 99.3146 7.92931 99.6839C7.92634 100.155 7.79838 100.576 7.54544 100.945C7.29534 101.312 6.94725 101.6 6.50117 101.81C6.05793 102.017 5.54511 102.121 4.96273 102.121ZM4.96299 101.183C5.35787 101.183 5.6988 101.119 5.98577 100.992C6.27273 100.864 6.49437 100.684 6.65069 100.451C6.807 100.218 6.88662 99.945 6.88955 99.6325C6.8868 99.3029 6.80165 99.0117 6.63411 98.7588C6.46657 98.5059 6.23793 98.307 5.9482 98.162C5.6613 98.0171 5.3332 97.9445 4.96388 97.9444C4.59172 97.9443 4.25932 98.0167 3.96666 98.1615C3.67685 98.3063 3.4481 98.5051 3.28042 98.7579C3.11557 99.0107 3.03453 99.3019 3.03728 99.6314C3.03435 99.9439 3.10956 100.217 3.2629 100.45C3.41909 100.683 3.64205 100.863 3.93179 100.991C4.22153 101.119 4.56526 101.183 4.96299 101.183ZM4.96413 97.041C5.27663 97.0411 5.55364 96.9787 5.79515 96.8538C6.0395 96.7288 6.23131 96.5542 6.37058 96.3298C6.50984 96.1054 6.58094 95.8426 6.58386 95.5415C6.5811 95.246 6.51157 94.9889 6.37527 94.7701C6.23897 94.5485 6.05009 94.378 5.80865 94.2586C5.5672 94.1364 5.28597 94.0752 4.96495 94.0751C4.63824 94.075 4.35272 94.136 4.10836 94.2581C3.86401 94.3774 3.67505 94.5478 3.54146 94.7693C3.40788 94.9881 3.34247 95.2451 3.34523 95.5406C3.3423 95.8417 3.40899 96.1045 3.54529 96.329C3.68444 96.5535 3.87615 96.7282 4.12043 96.8533C4.36472 96.9784 4.64595 97.0409 4.96413 97.041ZM12.4941 102.123C11.8521 102.122 11.3052 101.948 10.8536 101.598C10.402 101.246 10.057 100.736 9.81854 100.068C9.58009 99.3974 9.46099 98.5877 9.46126 97.6389C9.46152 96.6957 9.58106 95.8903 9.81988 95.2228C10.0615 94.5524 10.4083 94.0411 10.8601 93.689C11.3147 93.334 11.8602 93.1566 12.4966 93.1568C13.1329 93.1569 13.6769 93.3346 14.1285 93.6899C14.583 94.0423 14.9294 94.5537 15.1679 95.2243C15.4092 95.8919 15.5297 96.6974 15.5294 97.6405C15.5292 98.5894 15.4096 99.399 15.1708 100.069C14.932 100.737 14.5867 101.247 14.1349 101.599C13.6831 101.948 13.1362 102.123 12.4941 102.123ZM12.4944 101.185C13.1307 101.185 13.6251 100.879 13.9776 100.265C14.33 99.6516 14.5064 98.7766 14.5067 97.6403C14.5069 96.8846 14.4261 96.2411 14.2643 95.7098C14.1054 95.1785 13.8754 94.7736 13.5743 94.4951C13.2761 94.2166 12.9168 94.0773 12.4963 94.0772C11.8656 94.077 11.3727 94.388 11.0174 95.01C10.6621 95.6293 10.4843 96.5056 10.484 97.6392C10.4838 98.3948 10.5631 99.0369 10.7221 99.5654C10.881 100.094 11.1096 100.496 11.4078 100.772C11.7089 101.047 12.0711 101.185 12.4944 101.185ZM20.0798 102.125C19.4378 102.125 18.891 101.95 18.4393 101.6C17.9877 101.248 17.6427 100.738 17.4043 100.07C17.1658 99.3995 17.0467 98.5898 17.047 97.641C17.0472 96.6978 17.1668 95.8924 17.4056 95.2249C17.6473 94.5545 17.994 94.0432 18.4458 93.6911C18.9004 93.3361 19.4459 93.1587 20.0823 93.1588C20.7187 93.159 21.2626 93.3367 21.7143 93.692C22.1687 94.0444 22.5152 94.5558 22.7536 95.2263C22.9949 95.894 23.1154 96.6995 23.1152 97.6426C23.1149 98.5915 22.9953 99.4011 22.7565 100.072C22.5177 100.739 22.1724 101.249 21.7206 101.601C21.2688 101.95 20.7219 102.125 20.0798 102.125ZM20.0801 101.187C20.7164 101.187 21.2108 100.881 21.5633 100.267C21.9157 99.6537 22.0921 98.7787 22.0924 97.6424C22.0926 96.8867 22.0118 96.2432 21.8501 95.7119C21.6911 95.1806 21.4611 94.7757 21.1601 94.4972C20.8618 94.2187 20.5025 94.0794 20.082 94.0793C19.4514 94.0791 18.9584 94.3901 18.6031 95.0121C18.2478 95.6314 18.07 96.5077 18.0697 97.6412C18.0695 98.3969 18.1489 99.039 18.3078 99.5674C18.4667 100.096 18.6953 100.498 18.9935 100.774C19.2946 101.049 19.6568 101.187 20.0801 101.187Z" fill="#808D9E"/>
</g>
<g filter="url(#filter1_d_1_2553)">
<rect x="171.549" y="84.0474" width="14" height="14" rx="7" transform="rotate(0.0158183 171.549 84.0474)" fill="#2280FF"/>
<rect x="172.548" y="85.0476" width="12" height="12" rx="6" transform="rotate(0.0158183 172.548 85.0476)" stroke="white" stroke-width="2"/>
</g>
<rect x="169.038" y="15.0466" width="12.2" height="10" rx="2" transform="rotate(0.0158183 169.038 15.0466)" fill="#FF5555"/>
<path d="M200.423 18.0553L199.19 18.055C199.117 17.7003 198.99 17.3887 198.807 17.1202C198.629 16.8517 198.41 16.6263 198.151 16.4439C197.896 16.2582 197.613 16.119 197.301 16.0261C196.99 15.9332 196.665 15.8867 196.327 15.8866C195.71 15.8864 195.152 16.042 194.651 16.3535C194.154 16.6649 193.758 17.1238 193.463 17.7303C193.171 18.3367 193.025 19.0808 193.025 19.9624C193.024 20.844 193.17 21.5881 193.462 22.1947C193.756 22.8014 194.152 23.2605 194.649 23.5722C195.15 23.8839 195.708 24.0398 196.325 24.04C196.663 24.0401 196.988 23.9938 197.299 23.9011C197.611 23.8083 197.894 23.6709 198.149 23.4887C198.408 23.3031 198.627 23.0761 198.806 22.8077C198.988 22.536 199.116 22.2245 199.189 21.8732L200.422 21.8735C200.329 22.3939 200.16 22.8595 199.914 23.2704C199.669 23.6813 199.364 24.0309 198.999 24.3191C198.635 24.6041 198.225 24.8211 197.771 24.9701C197.32 25.1191 196.838 25.1936 196.324 25.1934C195.456 25.1932 194.684 24.9808 194.008 24.5564C193.332 24.132 192.8 23.5286 192.412 22.7463C192.025 21.964 191.831 21.0359 191.831 19.9621C191.832 18.8882 192.026 17.9602 192.414 17.1781C192.802 16.396 193.334 15.793 194.01 15.3689C194.687 14.9449 195.459 14.7329 196.327 14.7332C196.841 14.7333 197.323 14.808 197.774 14.9573C198.228 15.1066 198.637 15.3254 199.002 15.6139C199.366 15.899 199.671 16.2471 199.916 16.6582C200.161 17.0659 200.33 17.5316 200.423 18.0553ZM204.856 25.2157C204.167 25.2155 203.562 25.0512 203.042 24.723C202.525 24.3947 202.121 23.9355 201.829 23.3455C201.541 22.7555 201.397 22.066 201.397 21.2772C201.398 20.4817 201.542 19.7874 201.83 19.1942C202.122 18.601 202.527 18.1404 203.044 17.8125C203.564 17.4845 204.169 17.3206 204.859 17.3208C205.548 17.321 206.151 17.4852 206.668 17.8135C207.188 18.1417 207.593 18.6025 207.881 19.1959C208.172 19.7892 208.318 20.4837 208.318 21.2791C208.318 22.0679 208.172 22.7573 207.88 23.3472C207.591 23.9371 207.187 24.396 206.666 24.724C206.149 25.0519 205.546 25.2158 204.856 25.2157ZM204.857 24.1617C205.38 24.1618 205.811 24.0277 206.15 23.7593C206.488 23.491 206.738 23.138 206.901 22.7006C207.063 22.2631 207.144 21.7892 207.145 21.2788C207.145 20.7684 207.064 20.2927 206.901 19.8519C206.739 19.411 206.489 19.0546 206.151 18.7828C205.813 18.5109 205.382 18.3749 204.858 18.3747C204.335 18.3746 203.904 18.5104 203.566 18.7821C203.228 19.0537 202.977 19.41 202.815 19.8507C202.652 20.2915 202.571 20.7671 202.571 21.2775C202.571 21.7879 202.652 22.2619 202.814 22.6995C202.976 23.137 203.226 23.4901 203.564 23.7586C203.902 24.0272 204.333 24.1615 204.857 24.1617ZM209.608 25.0579L209.61 17.4215L210.743 17.4218L210.743 18.615L210.843 18.615C211.002 18.2074 211.259 17.891 211.613 17.6657C211.968 17.4371 212.394 17.3228 212.891 17.323C213.395 17.3231 213.814 17.4376 214.149 17.6664C214.487 17.8918 214.75 18.2084 214.939 18.6162L215.019 18.6162C215.214 18.2218 215.508 17.9087 215.899 17.6768C216.29 17.4416 216.759 17.3241 217.306 17.3242C217.989 17.3244 218.547 17.5383 218.981 17.966C219.415 18.3904 219.632 19.0516 219.632 19.9498L219.631 25.0606L218.457 25.0603L218.459 19.9495C218.459 19.3861 218.305 18.9833 217.997 18.7413C217.688 18.4993 217.326 18.3782 216.908 18.3781C216.371 18.3779 215.955 18.5402 215.66 18.8649C215.365 19.1864 215.217 19.594 215.217 20.0878L215.216 25.0594L214.023 25.0591L214.024 19.829C214.024 19.3948 213.883 19.0451 213.602 18.7799C213.32 18.5113 212.957 18.377 212.513 18.3769C212.208 18.3768 211.923 18.4579 211.658 18.6202C211.396 18.7826 211.184 19.0079 211.021 19.2962C210.862 19.5812 210.782 19.9109 210.782 20.2855L210.781 25.0582L209.608 25.0579ZM221.275 27.9247L221.278 17.4247L222.411 17.425L222.411 18.6381L222.55 18.6381C222.636 18.5056 222.756 18.3366 222.908 18.1311C223.064 17.9224 223.286 17.7368 223.575 17.5745C223.866 17.4089 224.261 17.3261 224.758 17.3263C225.401 17.3264 225.968 17.4873 226.458 17.809C226.949 18.1306 227.331 18.5864 227.606 19.1765C227.881 19.7665 228.018 20.4626 228.018 21.2647C228.018 22.0734 227.88 22.7743 227.605 23.3675C227.33 23.9574 226.949 24.4147 226.461 24.7394C225.974 25.0607 225.412 25.2213 224.776 25.2212C224.285 25.221 223.892 25.1397 223.598 24.9772C223.303 24.8114 223.076 24.6241 222.917 24.4152C222.758 24.2031 222.635 24.0274 222.549 23.8881L222.449 23.8881L222.448 27.9251L221.275 27.9247ZM222.43 21.2432C222.43 21.8199 222.514 22.3287 222.683 22.7696C222.852 23.2071 223.099 23.5502 223.424 23.7989C223.749 24.0443 224.146 24.167 224.617 24.1671C225.107 24.1673 225.517 24.0381 225.845 23.7797C226.177 23.5179 226.425 23.1667 226.591 22.7259C226.76 22.2818 226.845 21.788 226.845 21.2444C226.845 20.7075 226.762 20.2236 226.597 19.7927C226.435 19.3584 226.188 19.0153 225.856 18.7634C225.528 18.5081 225.116 18.3803 224.619 18.3802C224.141 18.3801 223.74 18.5009 223.415 18.7428C223.09 18.9813 222.845 19.316 222.679 19.7468C222.513 20.1744 222.43 20.6732 222.43 21.2432ZM232.509 25.2233C231.773 25.2231 231.138 25.0605 230.605 24.7355C230.074 24.4073 229.665 23.9498 229.377 23.363C229.092 22.773 228.95 22.0869 228.95 21.3047C228.95 20.5225 229.093 19.8331 229.378 19.2366C229.667 18.6368 230.068 18.1696 230.582 17.835C231.099 17.497 231.702 17.3282 232.392 17.3284C232.789 17.3285 233.182 17.3949 233.57 17.5276C233.957 17.6602 234.31 17.8758 234.629 18.1742C234.947 18.4692 235.2 18.8604 235.389 19.3477C235.578 19.8349 235.672 20.4349 235.672 21.1475L235.672 21.6446L229.785 21.643L229.785 20.6288L234.479 20.6301C234.479 20.1992 234.393 19.8147 234.22 19.4766C234.052 19.1385 233.81 18.8716 233.495 18.676C233.183 18.4803 232.815 18.3825 232.391 18.3823C231.924 18.3822 231.52 18.4981 231.178 18.73C230.84 18.9586 230.58 19.2568 230.397 19.6247C230.215 19.9925 230.124 20.3869 230.124 20.8079L230.123 21.484C230.123 22.0607 230.222 22.5496 230.421 22.9507C230.623 23.3485 230.903 23.6518 231.261 23.8607C231.619 24.0663 232.035 24.1692 232.509 24.1693C232.817 24.1694 233.096 24.1264 233.344 24.0403C233.596 23.9509 233.813 23.8183 233.996 23.6427C234.178 23.4638 234.319 23.2418 234.418 22.9767L235.552 23.2951C235.432 23.6796 235.232 24.0176 234.95 24.3092C234.668 24.5975 234.32 24.8227 233.906 24.985C233.491 25.144 233.026 25.2234 232.509 25.2233ZM240.279 17.43L240.278 18.4243L236.321 18.4232L236.321 17.4289L240.279 17.43ZM237.475 15.5997L238.648 15.6L238.646 22.8784C238.646 23.2098 238.694 23.4584 238.79 23.6242C238.89 23.7866 239.016 23.896 239.168 23.9524C239.324 24.0055 239.488 24.032 239.66 24.0321C239.79 24.0321 239.896 24.0255 239.978 24.0123C240.061 23.9957 240.128 23.9825 240.177 23.9726L240.416 25.0266C240.336 25.0564 240.225 25.0862 240.083 25.116C239.94 25.1491 239.759 25.1656 239.541 25.1656C239.209 25.1655 238.884 25.0941 238.566 24.9515C238.251 24.8089 237.99 24.5917 237.781 24.3C237.576 24.0083 237.473 23.6404 237.473 23.1962L237.475 15.5997ZM241.541 25.0667L241.543 17.4303L242.717 17.4306L242.715 25.067L241.541 25.0667ZM242.14 16.1578C241.912 16.1577 241.715 16.0798 241.549 15.9239C241.387 15.7681 241.305 15.5808 241.305 15.3621C241.305 15.1433 241.387 14.9561 241.549 14.8004C241.715 14.6446 241.912 14.5668 242.141 14.5669C242.37 14.5669 242.565 14.6449 242.727 14.8007C242.893 14.9565 242.976 15.1438 242.976 15.3625C242.976 15.5813 242.893 15.7685 242.727 15.9243C242.565 16.08 242.369 16.1578 242.14 16.1578ZM247.687 17.432L247.686 18.4263L243.729 18.4252L243.729 17.4309L247.687 17.432ZM244.883 15.6017L246.057 15.602L246.055 22.8804C246.054 23.2119 246.102 23.4605 246.199 23.6262C246.298 23.7886 246.424 23.8981 246.576 23.9544C246.732 24.0075 246.896 24.0341 247.068 24.0341C247.198 24.0342 247.304 24.0276 247.387 24.0143C247.47 23.9978 247.536 23.9845 247.586 23.9746L247.824 25.0287C247.744 25.0585 247.633 25.0883 247.491 25.118C247.348 25.1512 247.168 25.1677 246.949 25.1676C246.617 25.1675 246.293 25.0962 245.974 24.9536C245.66 24.811 245.398 24.5938 245.189 24.3021C244.984 24.0103 244.881 23.6424 244.881 23.1983L244.883 15.6017ZM251.97 25.2287C251.28 25.2285 250.676 25.0642 250.155 24.736C249.638 24.4077 249.234 23.9485 248.943 23.3585C248.654 22.7685 248.51 22.079 248.511 21.2902C248.511 20.4947 248.655 19.8004 248.944 19.2072C249.236 18.614 249.64 18.1534 250.157 17.8255C250.678 17.4975 251.283 17.3336 251.972 17.3338C252.661 17.334 253.265 17.4982 253.781 17.8265C254.302 18.1547 254.706 18.6155 254.994 19.2089C255.286 19.8023 255.431 20.4967 255.431 21.2921C255.431 22.0809 255.285 22.7703 254.993 23.3602C254.704 23.9501 254.3 24.409 253.78 24.737C253.262 25.065 252.659 25.2288 251.97 25.2287ZM251.97 24.1747C252.494 24.1748 252.925 24.0407 253.263 23.7723C253.601 23.504 253.851 23.1511 254.014 22.7136C254.176 22.2761 254.258 21.8022 254.258 21.2918C254.258 20.7814 254.177 20.3057 254.015 19.8649C253.852 19.424 253.602 19.0677 253.264 18.7958C252.926 18.5239 252.495 18.3879 251.972 18.3877C251.448 18.3876 251.017 18.5234 250.679 18.7951C250.341 19.0668 250.09 19.423 249.928 19.8637C249.765 20.3045 249.684 20.7801 249.684 21.2905C249.684 21.8009 249.765 22.2749 249.927 22.7125C250.089 23.15 250.34 23.5031 250.678 23.7716C251.016 24.0402 251.446 24.1745 251.97 24.1747ZM256.721 25.0709L256.723 17.4345L257.857 17.4348L257.856 18.5882L257.936 18.5883C258.075 18.2105 258.327 17.9039 258.692 17.6687C259.056 17.4335 259.468 17.316 259.925 17.3161C260.011 17.3161 260.119 17.3178 260.248 17.3211C260.377 17.3245 260.475 17.3295 260.541 17.3361L260.541 18.5293C260.501 18.5194 260.41 18.5044 260.268 18.4845C260.128 18.4613 259.981 18.4496 259.825 18.4496C259.454 18.4495 259.122 18.5273 258.831 18.683C258.542 18.8353 258.314 19.0474 258.145 19.3191C257.979 19.5876 257.896 19.8941 257.896 20.2388L257.894 25.0712L256.721 25.0709Z" fill="#1D1E25"/>
<rect x="0.677494" y="15.0002" width="12.2" height="10" rx="2" transform="rotate(0.0158183 0.677494 15.0002)" fill="#2280FF"/>
<path d="M23.8705 14.8249L25.3421 14.8253L28.8 23.2779L28.9193 23.278L32.3819 14.8272L33.8535 14.8276L33.8507 25.0094L32.6972 25.0091L32.6994 17.2733L32.6 17.2733L29.416 25.0082L28.3024 25.0079L25.1227 17.2712L25.0232 17.2712L25.0211 25.007L23.8677 25.0067L23.8705 14.8249ZM36.4186 27.8738C36.2197 27.8737 36.0424 27.8571 35.8866 27.8239C35.7309 27.7941 35.6232 27.7642 35.5635 27.7343L35.8621 26.7003C36.1471 26.7733 36.399 26.7999 36.6177 26.7801C36.8365 26.7603 37.0304 26.6625 37.1995 26.4869C37.3719 26.3146 37.5294 26.0346 37.672 25.6469L37.8909 25.0503L35.0692 17.3734L36.3419 17.3738L38.4482 23.4596L38.5278 23.4596L40.6374 17.375L41.9101 17.3753L38.6662 26.1244C38.5203 26.5188 38.3396 26.8452 38.124 27.1037C37.9085 27.3654 37.6582 27.5593 37.3732 27.6851C37.0914 27.811 36.7732 27.8739 36.4186 27.8738ZM46.3934 27.8765L46.3963 17.3765L47.5298 17.3769L47.5295 18.5899L47.6687 18.59C47.7549 18.4574 47.8742 18.2884 48.0268 18.083C48.1826 17.8742 48.4047 17.6887 48.6931 17.5263C48.9848 17.3607 49.3792 17.2779 49.8764 17.2781C50.5194 17.2782 51.0861 17.4392 51.5766 17.7608C52.067 18.0824 52.4497 18.5383 52.7246 19.1283C52.9995 19.7183 53.1369 20.4144 53.1367 21.2165C53.1365 22.0252 52.9987 22.7261 52.7235 23.3193C52.4482 23.9092 52.0669 24.3665 51.5796 24.6912C51.0923 25.0125 50.5305 25.1731 49.8941 25.173C49.4036 25.1728 49.0108 25.0915 48.7159 24.929C48.421 24.7632 48.194 24.5759 48.035 24.3671C47.8759 24.1549 47.7533 23.9792 47.6672 23.84L47.5678 23.8399L47.5667 27.8769L46.3934 27.8765ZM47.5486 21.195C47.5485 21.7717 47.6328 22.2805 47.8017 22.7214C47.9707 23.1589 48.2175 23.502 48.5422 23.7507C48.867 23.9961 49.2647 24.1188 49.7353 24.1189C50.2258 24.1191 50.6352 23.9899 50.9634 23.7315C51.2949 23.4698 51.5436 23.1185 51.7094 22.6777C51.8786 22.2336 51.9632 21.7398 51.9634 21.1963C51.9635 20.6593 51.8808 20.1754 51.7152 19.7445C51.5529 19.3103 51.3061 18.9672 50.9747 18.7152C50.6467 18.4599 50.2341 18.3321 49.7369 18.332C49.2596 18.3319 48.8586 18.4527 48.5337 18.6946C48.2088 18.9332 47.9635 19.2678 47.7976 19.6987C47.6318 20.1262 47.5488 20.625 47.5486 21.195ZM54.4254 25.0151L54.4275 17.3788L55.561 17.3791L55.5607 18.5325L55.6403 18.5325C55.7796 18.1547 56.0316 17.8482 56.3962 17.613C56.7608 17.3777 57.1719 17.2602 57.6293 17.2603C57.7154 17.2603 57.8231 17.262 57.9524 17.2654C58.0817 17.2687 58.1794 17.2737 58.2457 17.2804L58.2454 18.4736C58.2056 18.4636 58.1145 18.4487 57.972 18.4287C57.8328 18.4055 57.6853 18.3939 57.5295 18.3938C57.1583 18.3937 56.8268 18.4715 56.5351 18.6272C56.2467 18.7796 56.018 18.9917 55.8489 19.2634C55.6831 19.5318 55.6001 19.8384 55.6 20.1831L55.5987 25.0154L54.4254 25.0151ZM62.0042 25.1763C61.3148 25.1761 60.71 25.0119 60.1897 24.6836C59.6727 24.3554 59.2685 23.8962 58.977 23.3062C58.6888 22.7161 58.5448 22.0267 58.5451 21.2379C58.5453 20.4424 58.6896 19.7481 58.9782 19.1549C59.27 18.5617 59.6745 18.1011 60.1916 17.7731C60.7121 17.4451 61.317 17.2812 62.0064 17.2814C62.6958 17.2816 63.2989 17.4458 63.8159 17.7741C64.3362 18.1024 64.7404 18.5632 65.0286 19.1565C65.3201 19.7499 65.4657 20.4443 65.4655 21.2398C65.4653 22.0286 65.3193 22.7179 65.0274 23.3078C64.7389 23.8977 64.3344 24.3566 63.814 24.6846C63.2969 25.0126 62.6936 25.1765 62.0042 25.1763ZM62.0045 24.1223C62.5282 24.1225 62.9591 23.9884 63.2972 23.72C63.6354 23.4516 63.8857 23.0987 64.0482 22.6612C64.2107 22.2238 64.2921 21.7499 64.2922 21.2394C64.2924 20.729 64.2113 20.2534 64.049 19.8125C63.8867 19.3717 63.6366 19.0153 63.2986 18.7434C62.9606 18.4716 62.5298 18.3355 62.0061 18.3354C61.4824 18.3353 61.0515 18.471 60.7134 18.7427C60.3752 19.0144 60.1249 19.3706 59.9624 19.8114C59.7998 20.2522 59.7185 20.7278 59.7184 21.2382C59.7182 21.7486 59.7993 22.2226 59.9616 22.6601C60.1239 23.0977 60.374 23.4507 60.712 23.7193C61.05 23.9878 61.4808 24.1222 62.0045 24.1223ZM69.639 25.1784C69.0026 25.1782 68.4409 25.0173 67.9537 24.6957C67.4666 24.3708 67.0856 23.9133 66.8106 23.3232C66.5357 22.7299 66.3984 22.0288 66.3986 21.2201C66.3988 20.4181 66.5365 19.7221 66.8118 19.1322C67.0871 18.5423 67.47 18.0867 67.9606 17.7653C68.4512 17.4439 69.018 17.2834 69.661 17.2835C70.1582 17.2837 70.5509 17.3666 70.8392 17.5324C71.1308 17.6949 71.3529 17.8806 71.5053 18.0894C71.661 18.295 71.7819 18.464 71.8681 18.5966L71.9675 18.5967L71.9685 14.8381L73.1418 14.8385L73.139 25.0203L72.0055 25.02L72.0058 23.8467L71.8666 23.8466C71.7804 23.9858 71.6577 24.1615 71.4986 24.3735C71.3394 24.5823 71.1123 24.7695 70.8173 24.9351C70.5223 25.0975 70.1295 25.1786 69.639 25.1784ZM69.7983 24.1245C70.269 24.1246 70.6667 24.0021 70.9916 23.7569C71.3165 23.5084 71.5635 23.1655 71.7327 22.728C71.9018 22.2872 71.9865 21.7785 71.9867 21.2018C71.9868 20.6317 71.9041 20.1329 71.7385 19.7053C71.5729 19.2744 71.3277 18.9395 71.003 18.7008C70.6782 18.4588 70.2772 18.3377 69.7999 18.3375C69.3028 18.3374 68.8884 18.4649 68.5569 18.72C68.2287 18.9718 67.9817 19.3148 67.8159 19.7489C67.6534 20.1798 67.572 20.6636 67.5719 21.2006C67.5717 21.7441 67.6545 22.238 67.82 22.6822C67.989 23.123 68.2374 23.4744 68.5655 23.7364C68.8969 23.995 69.3078 24.1243 69.7983 24.1245ZM79.7642 21.9L79.7654 17.3858L80.9387 17.3861L80.9366 25.0224L79.7633 25.0221L79.7637 23.7295L79.6841 23.7295C79.505 24.1172 79.2265 24.4469 78.8486 24.7186C78.4707 24.987 77.9934 25.1211 77.4167 25.1209C76.9394 25.1208 76.5152 25.0163 76.144 24.8073C75.7729 24.5951 75.4813 24.2769 75.2693 23.8526C75.0573 23.4249 74.9514 22.8863 74.9516 22.2367L74.9529 17.3844L76.1262 17.3848L76.1249 22.1575C76.1247 22.7143 76.2804 23.1585 76.5918 23.49C76.9066 23.8215 77.3076 23.9873 77.7948 23.9875C78.0865 23.9876 78.3832 23.9131 78.6848 23.764C78.9898 23.6149 79.245 23.3863 79.4506 23.0781C79.6595 22.77 79.764 22.3772 79.7642 21.9ZM85.6878 25.1828C84.9719 25.1826 84.3554 25.0134 83.8385 24.6752C83.3215 24.337 82.9239 23.8712 82.6457 23.2779C82.3675 22.6845 82.2284 22.0067 82.2286 21.2444C82.2289 20.4688 82.3716 19.7844 82.6568 19.1912C82.9453 18.5947 83.3465 18.1292 83.8603 17.7946C84.3774 17.4566 84.9807 17.2878 85.6701 17.288C86.207 17.2881 86.6909 17.3877 87.1217 17.5867C87.5525 17.7856 87.9054 18.0641 88.1804 18.4222C88.4554 18.7802 88.626 19.1979 88.6922 19.6752L87.5189 19.6748C87.4295 19.3268 87.2307 19.0185 86.9225 18.7499C86.6177 18.4781 86.2067 18.3421 85.6897 18.3419C85.2323 18.3418 84.8312 18.461 84.4865 18.6996C84.145 18.9348 83.8781 19.2678 83.6858 19.6986C83.4967 20.1261 83.4021 20.6282 83.402 21.2049C83.4018 21.7949 83.4945 22.3087 83.6799 22.7462C83.8687 23.1838 84.1338 23.5236 84.4751 23.7656C84.8197 24.0077 85.2241 24.1287 85.6881 24.1289C85.993 24.129 86.2698 24.076 86.5184 23.97C86.767 23.864 86.9775 23.7116 87.1499 23.5128C87.3223 23.314 87.445 23.0754 87.518 22.797L88.6913 22.7973C88.6249 23.2481 88.4607 23.654 88.1988 24.0152C87.9401 24.3731 87.597 24.658 87.1694 24.87C86.7451 25.0787 86.2512 25.183 85.6878 25.1828ZM93.229 17.3895L93.2287 18.3838L89.2713 18.3827L89.2716 17.3884L93.229 17.3895ZM90.4255 15.5592L91.5988 15.5595L91.5968 22.8379C91.5967 23.1693 91.6447 23.4179 91.7408 23.5837C91.8402 23.7461 91.9661 23.8555 92.1185 23.9119C92.2743 23.965 92.4384 23.9915 92.6107 23.9916C92.74 23.9916 92.846 23.985 92.9289 23.9718C93.0118 23.9552 93.078 23.942 93.1278 23.9321L93.3661 24.9861C93.2866 25.0159 93.1755 25.0457 93.033 25.0755C92.8905 25.1086 92.7098 25.1251 92.4911 25.1251C92.1596 25.125 91.8348 25.0536 91.5167 24.911C91.2019 24.7684 90.9401 24.5512 90.7314 24.2595C90.526 23.9678 90.4233 23.5999 90.4234 23.1557L90.4255 15.5592Z" fill="#1D1E25"/>
</g>
<defs>
<filter id="filter0_d_1_2553" x="165.547" y="32.0552" width="116.007" height="82.0132" filterUnits="userSpaceOnUse" color-interpolation-filters="sRGB">
<feFlood flood-opacity="0" result="BackgroundImageFix"/>
<feColorMatrix in="SourceAlpha" type="matrix" values="0 0 0 0 0 0 0 0 0 0 0 0 0 0 0 0 0 0 127 0" result="hardAlpha"/>
<feOffset dy="4"/>
<feGaussianBlur stdDeviation="11"/>
<feComposite in2="hardAlpha" operator="out"/>
<feColorMatrix type="matrix" values="0 0 0 0 0.624722 0 0 0 0 0.6401 0 0 0 0 0.720833 0 0 0 0.25 0"/>
<feBlend mode="multiply" in2="BackgroundImageFix" result="effect1_dropShadow_1_2553"/>
<feBlend mode="normal" in="SourceGraphic" in2="effect1_dropShadow_1_2553" result="shape"/>
</filter>
<filter id="filter1_d_1_2553" x="167.547" y="82.0493" width="22" height="22" filterUnits="userSpaceOnUse" color-interpolation-filters="sRGB">
<feFlood flood-opacity="0" result="BackgroundImageFix"/>
<feColorMatrix in="SourceAlpha" type="matrix" values="0 0 0 0 0 0 0 0 0 0 0 0 0 0 0 0 0 0 127 0" result="hardAlpha"/>
<feOffset dy="2"/>
<feGaussianBlur stdDeviation="2"/>
<feColorMatrix type="matrix" values="0 0 0 0 0.268354 0 0 0 0 0.268354 0 0 0 0 0.31049 0 0 0 0.15 0"/>
<feBlend mode="normal" in2="BackgroundImageFix" result="effect1_dropShadow_1_2553"/>
<feBlend mode="normal" in="SourceGraphic" in2="effect1_dropShadow_1_2553" result="shape"/>
</filter>
<linearGradient id="paint0_linear_1_2553" x1="180.007" y1="54.0497" x2="179.956" y2="237.05" gradientUnits="userSpaceOnUse">
<stop stop-color="#2A85FF"/>
<stop offset="1" stop-color="#2A85FF" stop-opacity="0"/>
</linearGradient>
<clipPath id="clip0_1_2553">
<rect width="366" height="260" fill="white" transform="translate(0.0717812) rotate(0.0158183)"/>
</clipPath>
<clipPath id="clip1_1_2553">
<rect width="26.84" height="206" fill="white" transform="translate(325.187 54.0896) rotate(0.0158183)"/>
</clipPath>
<clipPath id="clip2_1_2553">
<rect width="29.28" height="206" fill="white" transform="translate(271.507 54.075) rotate(0.0158183)"/>
</clipPath>
<clipPath id="clip3_1_2553">
<rect width="30.5" height="206" fill="white" transform="translate(216.607 54.0598) rotate(0.0158183)"/>
</clipPath>
<clipPath id="clip4_1_2553">
<rect width="48.8" height="206" fill="white" transform="translate(155.607 54.043) rotate(0.0158183)"/>
</clipPath>
<clipPath id="clip5_1_2553">
<rect width="29.28" height="206" fill="white" transform="translate(114.127 54.0315) rotate(0.0158183)"/>
</clipPath>
<clipPath id="clip6_1_2553">
<rect width="32.94" height="206" fill="white" transform="translate(56.7869 54.0156) rotate(0.0158183)"/>
</clipPath>
<clipPath id="clip7_1_2553">
<rect width="28.06" height="206" fill="white" transform="translate(4.32691 54.001) rotate(0.0158183)"/>
</clipPath>
<clipPath id="clip8_1_2553">
<rect width="29.28" height="24" fill="white" transform="translate(-0.590084 188) rotate(0.0158183)"/>
</clipPath>
<clipPath id="clip9_1_2553">
<rect width="29.28" height="24" fill="white" transform="translate(-0.580563 154) rotate(0.0158183)"/>
</clipPath>
<clipPath id="clip10_1_2553">
<rect width="29.28" height="24" fill="white" transform="translate(-0.571285 120) rotate(0.0158183)"/>
</clipPath>
<clipPath id="clip11_1_2553">
<rect width="29.28" height="24" fill="white" transform="translate(-0.561764 85.9998) rotate(0.0158183)"/>
</clipPath>
</defs>
</svg>
