<svg width="177" height="149" viewBox="0 0 177 149" fill="none" xmlns="http://www.w3.org/2000/svg">
<line x1="28.7017" y1="12.709" x2="171.702" y2="12.709" stroke="#E6E9ED" stroke-dasharray="2 2"/>
<line x1="28.7017" y1="64.709" x2="171.702" y2="64.709" stroke="#E6E9ED" stroke-dasharray="2 2"/>
<line x1="28.7017" y1="119.709" x2="171.702" y2="119.709" stroke="#E6E9ED" stroke-dasharray="2 2"/>
<path d="M37.2505 134.422H38.3073V140.661C38.3073 141.217 38.205 141.69 38.0005 142.08C37.7959 142.469 37.5076 142.764 37.1354 142.966C36.7632 143.168 36.3243 143.268 35.8186 143.268C35.3414 143.268 34.9167 143.182 34.5445 143.009C34.1723 142.832 33.8797 142.582 33.6667 142.259C33.4536 141.935 33.3471 141.55 33.3471 141.104H34.3868C34.3868 141.351 34.4479 141.567 34.5701 141.751C34.6951 141.933 34.8655 142.075 35.0814 142.178C35.2973 142.28 35.5431 142.331 35.8186 142.331C36.1226 142.331 36.3811 142.267 36.5942 142.139C36.8073 142.011 36.9692 141.824 37.08 141.577C37.1936 141.327 37.2505 141.021 37.2505 140.661V134.422ZM42.215 143.303C41.8002 143.303 41.4238 143.224 41.0857 143.068C40.7476 142.909 40.4792 142.68 40.2803 142.382C40.0814 142.081 39.982 141.717 39.982 141.291C39.982 140.916 40.0559 140.612 40.2036 140.379C40.3513 140.143 40.5488 139.959 40.7959 139.825C41.0431 139.692 41.3158 139.592 41.6141 139.527C41.9152 139.459 42.2178 139.405 42.5218 139.365C42.9195 139.314 43.2419 139.276 43.4891 139.25C43.7391 139.222 43.9209 139.175 44.0346 139.109C44.151 139.044 44.2093 138.93 44.2093 138.768V138.734C44.2093 138.314 44.0942 137.987 43.8641 137.754C43.6368 137.521 43.2917 137.405 42.8286 137.405C42.3485 137.405 41.9721 137.51 41.6993 137.72C41.4266 137.93 41.2348 138.155 41.124 138.393L40.1695 138.053C40.34 137.655 40.5672 137.345 40.8513 137.124C41.1382 136.899 41.4507 136.743 41.7888 136.655C42.1297 136.564 42.465 136.518 42.7945 136.518C43.0047 136.518 43.2462 136.544 43.5189 136.595C43.7945 136.643 44.0601 136.744 44.3158 136.898C44.5743 137.051 44.7888 137.283 44.9593 137.592C45.1297 137.902 45.215 138.317 45.215 138.837V143.149H44.2093V142.263H44.1581C44.09 142.405 43.9763 142.557 43.8172 142.719C43.6581 142.881 43.4465 143.018 43.1823 143.132C42.9181 143.246 42.5956 143.303 42.215 143.303ZM42.3684 142.399C42.7661 142.399 43.1013 142.321 43.374 142.165C43.6496 142.009 43.857 141.807 43.9962 141.56C44.1382 141.313 44.2093 141.053 44.2093 140.78V139.859C44.1667 139.911 44.0729 139.957 43.928 140C43.786 140.04 43.6212 140.075 43.4337 140.107C43.249 140.135 43.0686 140.161 42.8925 140.183C42.7192 140.203 42.5786 140.22 42.4706 140.234C42.2093 140.268 41.965 140.324 41.7377 140.401C41.5132 140.474 41.3314 140.587 41.1922 140.737C41.0559 140.885 40.9877 141.087 40.9877 141.342C40.9877 141.692 41.1169 141.956 41.3755 142.135C41.6368 142.311 41.9678 142.399 42.3684 142.399ZM48.0562 139.212V143.149H47.0505V136.604H48.0221V137.626H48.1074C48.2608 137.294 48.4937 137.027 48.8062 136.825C49.1187 136.621 49.5221 136.518 50.0164 136.518C50.4596 136.518 50.8474 136.609 51.1798 136.791C51.5122 136.97 51.7707 137.243 51.9554 137.609C52.14 137.973 52.2324 138.433 52.2324 138.99V143.149H51.2267V139.058C51.2267 138.544 51.0931 138.143 50.8261 137.857C50.5591 137.567 50.1926 137.422 49.7267 137.422C49.4056 137.422 49.1187 137.491 48.8659 137.631C48.6159 137.77 48.4184 137.973 48.2735 138.24C48.1287 138.507 48.0562 138.831 48.0562 139.212Z" fill="#808D9E"/>
<path opacity="0.7" d="M0.730273 7.75V6.71H2.81027L2.81027 14H1.66027L1.66027 7.75H0.730273ZM4.37637 10.26C4.37637 9.10667 4.5697 8.20667 4.95637 7.56C5.3497 6.90667 6.02303 6.58 6.97637 6.58C7.9297 6.58 8.5997 6.90667 8.98637 7.56C9.3797 8.20667 9.57637 9.10667 9.57637 10.26C9.57637 11.4267 9.3797 12.34 8.98637 13C8.5997 13.6533 7.9297 13.98 6.97637 13.98C6.02303 13.98 5.3497 13.6533 4.95637 13C4.5697 12.34 4.37637 11.4267 4.37637 10.26ZM8.45637 10.26C8.45637 9.72 8.4197 9.26333 8.34637 8.89C8.2797 8.51667 8.1397 8.21333 7.92637 7.98C7.71303 7.74 7.39637 7.62 6.97637 7.62C6.55637 7.62 6.2397 7.74 6.02637 7.98C5.81303 8.21333 5.6697 8.51667 5.59637 8.89C5.5297 9.26333 5.49637 9.72 5.49637 10.26C5.49637 10.82 5.5297 11.29 5.59637 11.67C5.66303 12.05 5.80303 12.3567 6.01637 12.59C6.23637 12.8233 6.55637 12.94 6.97637 12.94C7.39637 12.94 7.71303 12.8233 7.92637 12.59C8.14637 12.3567 8.2897 12.05 8.35637 11.67C8.42303 11.29 8.45637 10.82 8.45637 10.26ZM13.1126 11.25L15.6526 14H14.1126L12.0726 11.63V14H10.9326V6.6H12.0726V10.9L14.0726 8.49H15.6526L13.1126 11.25Z" fill="#1D1E25"/>
<path opacity="0.7" d="M7.33809 61.69H3.98809L3.98809 63.68C4.12809 63.4933 4.33475 63.3367 4.60809 63.21C4.88809 63.0833 5.18475 63.02 5.49809 63.02C6.05809 63.02 6.51142 63.14 6.85809 63.38C7.21142 63.62 7.46142 63.9233 7.60809 64.29C7.76142 64.6567 7.83809 65.0433 7.83809 65.45C7.83809 65.9433 7.74142 66.3833 7.54809 66.77C7.36142 67.15 7.07809 67.45 6.69809 67.67C6.32475 67.89 5.86475 68 5.31809 68C4.59142 68 4.00809 67.82 3.56809 67.46C3.12809 67.1 2.86475 66.6233 2.77809 66.03H3.88809C3.96142 66.3433 4.12475 66.5933 4.37809 66.78C4.63142 66.96 4.94809 67.05 5.32809 67.05C5.80142 67.05 6.15475 66.9067 6.38809 66.62C6.62809 66.3333 6.74809 65.9533 6.74809 65.48C6.74809 65 6.62809 64.6333 6.38809 64.38C6.14809 64.12 5.79475 63.99 5.32809 63.99C5.00142 63.99 4.72475 64.0733 4.49809 64.24C4.27809 64.4 4.11809 64.62 4.01809 64.9H2.93809L2.93809 60.69H7.33809V61.69ZM11.3548 65.25L13.8948 68H12.3548L10.3148 65.63V68H9.1748V60.6H10.3148V64.9L12.3148 62.49H13.8948L11.3548 65.25Z" fill="#1D1E25"/>
<path opacity="0.7" d="M5.39688 118.26C5.39688 117.107 5.59021 116.207 5.97688 115.56C6.37021 114.907 7.04354 114.58 7.99688 114.58C8.95021 114.58 9.62021 114.907 10.0069 115.56C10.4002 116.207 10.5969 117.107 10.5969 118.26C10.5969 119.427 10.4002 120.34 10.0069 121C9.62021 121.653 8.95021 121.98 7.99688 121.98C7.04354 121.98 6.37021 121.653 5.97688 121C5.59021 120.34 5.39688 119.427 5.39688 118.26ZM9.47688 118.26C9.47688 117.72 9.44021 117.263 9.36688 116.89C9.30021 116.517 9.16021 116.213 8.94688 115.98C8.73354 115.74 8.41688 115.62 7.99688 115.62C7.57688 115.62 7.26021 115.74 7.04688 115.98C6.83354 116.213 6.69021 116.517 6.61688 116.89C6.55021 117.263 6.51688 117.72 6.51688 118.26C6.51688 118.82 6.55021 119.29 6.61688 119.67C6.68354 120.05 6.82354 120.357 7.03688 120.59C7.25688 120.823 7.57688 120.94 7.99688 120.94C8.41688 120.94 8.73354 120.823 8.94688 120.59C9.16688 120.357 9.31021 120.05 9.37688 119.67C9.44354 119.29 9.47688 118.82 9.47688 118.26Z" fill="#1D1E25"/>
<path d="M146.619 134.422H147.88L150.846 141.666H150.948L153.914 134.422H155.175V143.149H154.187V136.518H154.102L151.374 143.149H150.42L147.692 136.518H147.607V143.149H146.619V134.422ZM159.084 143.303C158.669 143.303 158.293 143.224 157.955 143.068C157.617 142.909 157.348 142.68 157.149 142.382C156.951 142.081 156.851 141.717 156.851 141.291C156.851 140.916 156.925 140.612 157.073 140.379C157.22 140.143 157.418 139.959 157.665 139.825C157.912 139.692 158.185 139.592 158.483 139.527C158.784 139.459 159.087 139.405 159.391 139.365C159.789 139.314 160.111 139.276 160.358 139.25C160.608 139.222 160.79 139.175 160.904 139.109C161.02 139.044 161.078 138.93 161.078 138.768V138.734C161.078 138.314 160.963 137.987 160.733 137.754C160.506 137.521 160.161 137.405 159.698 137.405C159.218 137.405 158.841 137.51 158.568 137.72C158.296 137.93 158.104 138.155 157.993 138.393L157.039 138.053C157.209 137.655 157.436 137.345 157.72 137.124C158.007 136.899 158.32 136.743 158.658 136.655C158.999 136.564 159.334 136.518 159.664 136.518C159.874 136.518 160.115 136.544 160.388 136.595C160.664 136.643 160.929 136.744 161.185 136.898C161.443 137.051 161.658 137.283 161.828 137.592C161.999 137.902 162.084 138.317 162.084 138.837V143.149H161.078V142.263H161.027C160.959 142.405 160.845 142.557 160.686 142.719C160.527 142.881 160.316 143.018 160.051 143.132C159.787 143.246 159.465 143.303 159.084 143.303ZM159.238 142.399C159.635 142.399 159.97 142.321 160.243 142.165C160.519 142.009 160.726 141.807 160.865 141.56C161.007 141.313 161.078 141.053 161.078 140.78V139.859C161.036 139.911 160.942 139.957 160.797 140C160.655 140.04 160.49 140.075 160.303 140.107C160.118 140.135 159.938 140.161 159.762 140.183C159.588 140.203 159.448 140.22 159.34 140.234C159.078 140.268 158.834 140.324 158.607 140.401C158.382 140.474 158.201 140.587 158.061 140.737C157.925 140.885 157.857 141.087 157.857 141.342C157.857 141.692 157.986 141.956 158.245 142.135C158.506 142.311 158.837 142.399 159.238 142.399ZM163.92 143.149V136.604H164.891V137.592H164.959C165.079 137.268 165.295 137.006 165.607 136.804C165.92 136.602 166.272 136.501 166.664 136.501C166.738 136.501 166.83 136.503 166.941 136.506C167.052 136.509 167.136 136.513 167.192 136.518V137.541C167.158 137.533 167.08 137.52 166.958 137.503C166.839 137.483 166.712 137.473 166.579 137.473C166.261 137.473 165.977 137.54 165.727 137.673C165.479 137.804 165.283 137.986 165.138 138.219C164.996 138.449 164.925 138.712 164.925 139.007V143.149H163.92Z" fill="#808D9E"/>
<path d="M90.6191 143.149V134.422H95.8521V135.359H91.6759V138.308H95.46V139.246H91.6759V143.149H90.6191ZM99.7896 143.286C99.1589 143.286 98.6149 143.146 98.1575 142.868C97.7029 142.587 97.3521 142.195 97.1049 141.692C96.8606 141.186 96.7384 140.598 96.7384 139.928C96.7384 139.257 96.8606 138.666 97.1049 138.155C97.3521 137.641 97.6958 137.24 98.1362 136.953C98.5793 136.663 99.0964 136.518 99.6873 136.518C100.028 136.518 100.365 136.575 100.697 136.689C101.03 136.803 101.332 136.987 101.605 137.243C101.878 137.496 102.095 137.831 102.257 138.249C102.419 138.666 102.5 139.18 102.5 139.791V140.217H97.4543V139.348H101.477C101.477 138.979 101.403 138.649 101.255 138.359C101.111 138.07 100.903 137.841 100.633 137.673C100.366 137.506 100.051 137.422 99.6873 137.422C99.2867 137.422 98.9401 137.521 98.6475 137.72C98.3578 137.916 98.1347 138.172 97.9785 138.487C97.8222 138.803 97.7441 139.141 97.7441 139.501V140.081C97.7441 140.575 97.8293 140.994 97.9998 141.338C98.1731 141.679 98.4132 141.939 98.72 142.118C99.0268 142.294 99.3833 142.382 99.7896 142.382C100.054 142.382 100.292 142.345 100.505 142.271C100.721 142.195 100.907 142.081 101.064 141.93C101.22 141.777 101.341 141.587 101.426 141.359L102.398 141.632C102.295 141.962 102.123 142.251 101.882 142.501C101.64 142.749 101.342 142.942 100.987 143.081C100.632 143.217 100.233 143.286 99.7896 143.286ZM104.166 143.149V134.422H105.172V137.643H105.257C105.331 137.53 105.433 137.385 105.564 137.209C105.697 137.03 105.888 136.871 106.135 136.732C106.385 136.59 106.723 136.518 107.149 136.518C107.7 136.518 108.186 136.656 108.606 136.932C109.027 137.207 109.355 137.598 109.591 138.104C109.827 138.609 109.944 139.206 109.944 139.893C109.944 140.587 109.827 141.188 109.591 141.696C109.355 142.202 109.028 142.594 108.611 142.872C108.193 143.148 107.711 143.286 107.166 143.286C106.746 143.286 106.409 143.216 106.156 143.077C105.903 142.935 105.709 142.774 105.572 142.595C105.436 142.413 105.331 142.263 105.257 142.143H105.138V143.149H104.166ZM105.155 139.876C105.155 140.371 105.227 140.807 105.372 141.185C105.517 141.56 105.728 141.854 106.007 142.067C106.285 142.277 106.626 142.382 107.03 142.382C107.45 142.382 107.801 142.271 108.082 142.05C108.366 141.825 108.579 141.524 108.721 141.146C108.866 140.766 108.939 140.342 108.939 139.876C108.939 139.416 108.868 139.001 108.726 138.632C108.586 138.26 108.375 137.966 108.091 137.75C107.809 137.531 107.456 137.422 107.03 137.422C106.621 137.422 106.277 137.526 105.998 137.733C105.72 137.938 105.51 138.224 105.368 138.594C105.226 138.96 105.155 139.388 105.155 139.876Z" fill="#808D9E"/>
<rect x="36.75" y="17.5" width="15" height="52.5351" rx="7.5" fill="#EB6E46" stroke="white" stroke-width="3"/>
<rect x="36.75" y="32.2964" width="15" height="52.5351" rx="7.5" fill="#20BFF7" stroke="white" stroke-width="3"/>
<rect x="36.75" y="69.6084" width="15" height="52.5351" rx="7.5" fill="#2280FF" stroke="white" stroke-width="3"/>
<rect x="92.75" y="51.5955" width="15" height="35.2918" rx="7.5" fill="#EB6E46" stroke="white" stroke-width="3"/>
<rect x="92.75" y="76.0415" width="15" height="35.2918" rx="7.5" fill="#20BFF7" stroke="white" stroke-width="3"/>
<rect x="92.75" y="101.774" width="15" height="20.3694" rx="7.5" fill="#2280FF" stroke="white" stroke-width="3"/>
<rect x="148.75" y="56.0989" width="15" height="33.7243" rx="7.5" fill="#EB6E46" stroke="white" stroke-width="3"/>
<rect x="148.75" y="65.2769" width="15" height="33.7243" rx="7.5" fill="#20BFF7" stroke="white" stroke-width="3"/>
<rect x="148.75" y="88.4202" width="15" height="33.7243" rx="7.5" fill="#2280FF" stroke="white" stroke-width="3"/>
</svg>
