<svg width="20" height="20" viewBox="0 0 20 20" fill="none" xmlns="http://www.w3.org/2000/svg">
<path fill-rule="evenodd" clip-rule="evenodd" d="M9.6 19.2C14.9019 19.2 19.2 14.9019 19.2 9.6C19.2 4.29807 14.9019 0 9.6 0C4.29807 0 0 4.29807 0 9.6C0 14.9019 4.29807 19.2 9.6 19.2ZM14.0485 8.04853C14.5172 7.5799 14.5172 6.8201 14.0485 6.35147C13.5799 5.88284 12.8201 5.88284 12.3515 6.35147L8.4 10.3029L6.84853 8.75147C6.3799 8.28284 5.6201 8.28284 5.15147 8.75147C4.68284 9.2201 4.68284 9.9799 5.15147 10.4485L7.55147 12.8485C8.0201 13.3172 8.7799 13.3172 9.24853 12.8485L14.0485 8.04853Z" fill="#46B277"/>
</svg>
