<svg width="18" height="18" viewBox="0 0 18 18" fill="none" xmlns="http://www.w3.org/2000/svg">
  <path
    d="M3.64332 7.28644C2.84181 7.28644 2.18604 7.94222 2.18604 8.74372C2.18604 9.54523 2.84181 10.201 3.64332 10.201C4.44483 10.201 5.10061 9.54523 5.10061 8.74372C5.10061 7.94222 4.44483 7.28644 3.64332 7.28644Z"
    fill="#7E8492" />
  <path
    d="M13.8442 7.28644C13.0427 7.28644 12.387 7.94222 12.387 8.74372C12.387 9.54523 13.0427 10.201 13.8442 10.201C14.6458 10.201 15.3015 9.54523 15.3015 8.74372C15.3015 7.94222 14.6458 7.28644 13.8442 7.28644Z"
    fill="#7E8492" />
  <path
    d="M8.74366 7.28644C7.94216 7.28644 7.28638 7.94222 7.28638 8.74372C7.28638 9.54523 7.94216 10.201 8.74366 10.201C9.54517 10.201 10.2009 9.54523 10.2009 8.74372C10.2009 7.94222 9.54517 7.28644 8.74366 7.28644Z"
    fill="#7E8492" />
</svg>
